<svg width="1440" height="433" viewBox="0 0 1440 433" fill="none" xmlns="http://www.w3.org/2000/svg">
<path d="M0 0H1440V433H0V0Z" fill="#121118"/>
<path d="M160 30C160 13.4315 173.431 0 190 0H1250C1266.57 0 1280 13.4315 1280 30V403C1280 419.569 1266.57 433 1250 433H190C173.431 433 160 419.569 160 403V30Z" fill="#1D1B24"/>
<path d="M364.627 208.485V216H362.095V196.805H369.175C371.275 196.805 372.919 197.341 374.106 198.413C375.301 199.485 375.899 200.905 375.899 202.671C375.899 204.535 375.314 205.972 374.145 206.982C372.985 207.984 371.319 208.485 369.149 208.485H364.627ZM364.627 206.416H369.175C370.528 206.416 371.566 206.099 372.286 205.466C373.007 204.825 373.367 203.902 373.367 202.698C373.367 201.555 373.007 200.641 372.286 199.956C371.566 199.27 370.577 198.914 369.32 198.888H364.627V206.416ZM381.816 216H379.377V201.735H381.816V216ZM379.179 197.952C379.179 197.556 379.298 197.222 379.535 196.95C379.781 196.677 380.142 196.541 380.616 196.541C381.091 196.541 381.451 196.677 381.697 196.95C381.944 197.222 382.067 197.556 382.067 197.952C382.067 198.347 381.944 198.677 381.697 198.94C381.451 199.204 381.091 199.336 380.616 199.336C380.142 199.336 379.781 199.204 379.535 198.94C379.298 198.677 379.179 198.347 379.179 197.952ZM391.873 214.273C392.743 214.273 393.504 214.009 394.154 213.482C394.804 212.955 395.165 212.295 395.235 211.504H397.542C397.498 212.322 397.217 213.1 396.698 213.838C396.18 214.576 395.486 215.165 394.615 215.604C393.754 216.044 392.84 216.264 391.873 216.264C389.931 216.264 388.384 215.618 387.233 214.326C386.09 213.025 385.519 211.25 385.519 209V208.591C385.519 207.202 385.774 205.967 386.283 204.886C386.793 203.805 387.523 202.966 388.472 202.368C389.43 201.771 390.559 201.472 391.86 201.472C393.46 201.472 394.787 201.951 395.842 202.909C396.905 203.867 397.472 205.11 397.542 206.64H395.235C395.165 205.717 394.813 204.961 394.18 204.372C393.556 203.774 392.783 203.476 391.86 203.476C390.621 203.476 389.658 203.924 388.973 204.82C388.296 205.708 387.958 206.996 387.958 208.683V209.145C387.958 210.788 388.296 212.054 388.973 212.941C389.65 213.829 390.616 214.273 391.873 214.273ZM404.686 209.395L403.157 210.99V216H400.718V195.75H403.157V207.998L404.462 206.429L408.905 201.735H411.871L406.321 207.694L412.517 216H409.656L404.686 209.395ZM430.733 216C430.592 215.719 430.478 215.218 430.39 214.497C429.256 215.675 427.903 216.264 426.33 216.264C424.923 216.264 423.768 215.868 422.862 215.077C421.966 214.277 421.518 213.267 421.518 212.045C421.518 210.56 422.08 209.408 423.205 208.591C424.339 207.765 425.93 207.352 427.978 207.352H430.351V206.231C430.351 205.378 430.096 204.702 429.586 204.201C429.076 203.691 428.325 203.436 427.332 203.436C426.461 203.436 425.732 203.656 425.143 204.095C424.554 204.535 424.26 205.066 424.26 205.69H421.808C421.808 204.979 422.058 204.293 422.559 203.634C423.069 202.966 423.754 202.438 424.616 202.052C425.486 201.665 426.439 201.472 427.477 201.472C429.12 201.472 430.408 201.885 431.339 202.711C432.271 203.528 432.754 204.658 432.79 206.099V212.665C432.79 213.974 432.957 215.016 433.291 215.789V216H430.733ZM426.686 214.141C427.45 214.141 428.175 213.943 428.861 213.548C429.546 213.152 430.043 212.638 430.351 212.005V209.079H428.439C425.451 209.079 423.957 209.953 423.957 211.702C423.957 212.467 424.211 213.064 424.721 213.495C425.231 213.926 425.886 214.141 426.686 214.141ZM449.872 214.273C450.742 214.273 451.502 214.009 452.152 213.482C452.803 212.955 453.163 212.295 453.234 211.504H455.541C455.497 212.322 455.215 213.1 454.697 213.838C454.178 214.576 453.484 215.165 452.614 215.604C451.753 216.044 450.839 216.264 449.872 216.264C447.929 216.264 446.382 215.618 445.231 214.326C444.089 213.025 443.517 211.25 443.517 209V208.591C443.517 207.202 443.772 205.967 444.282 204.886C444.792 203.805 445.521 202.966 446.47 202.368C447.428 201.771 448.558 201.472 449.859 201.472C451.458 201.472 452.785 201.951 453.84 202.909C454.903 203.867 455.47 205.11 455.541 206.64H453.234C453.163 205.717 452.812 204.961 452.179 204.372C451.555 203.774 450.781 203.476 449.859 203.476C448.619 203.476 447.657 203.924 446.971 204.82C446.295 205.708 445.956 206.996 445.956 208.683V209.145C445.956 210.788 446.295 212.054 446.971 212.941C447.648 213.829 448.615 214.273 449.872 214.273ZM458.057 208.736C458.057 207.338 458.329 206.082 458.874 204.965C459.428 203.849 460.193 202.988 461.168 202.381C462.153 201.775 463.273 201.472 464.53 201.472C466.472 201.472 468.041 202.144 469.237 203.489C470.441 204.833 471.043 206.622 471.043 208.854V209.026C471.043 210.415 470.775 211.663 470.239 212.77C469.711 213.869 468.951 214.726 467.958 215.341C466.973 215.956 465.84 216.264 464.556 216.264C462.623 216.264 461.054 215.591 459.85 214.247C458.655 212.902 458.057 211.122 458.057 208.907V208.736ZM460.509 209.026C460.509 210.608 460.874 211.878 461.603 212.836C462.342 213.794 463.326 214.273 464.556 214.273C465.796 214.273 466.78 213.79 467.51 212.823C468.239 211.847 468.604 210.485 468.604 208.736C468.604 207.171 468.23 205.906 467.483 204.939C466.745 203.963 465.76 203.476 464.53 203.476C463.326 203.476 462.355 203.955 461.616 204.913C460.878 205.871 460.509 207.242 460.509 209.026ZM483.328 214.589C482.379 215.706 480.986 216.264 479.149 216.264C477.628 216.264 476.468 215.824 475.668 214.945C474.877 214.058 474.477 212.748 474.469 211.017V201.735H476.908V210.951C476.908 213.113 477.786 214.194 479.544 214.194C481.408 214.194 482.647 213.5 483.262 212.111V201.735H485.701V216H483.381L483.328 214.589ZM496.734 203.924C496.365 203.862 495.965 203.832 495.534 203.832C493.934 203.832 492.849 204.513 492.278 205.875V216H489.839V201.735H492.212L492.251 203.383C493.051 202.109 494.185 201.472 495.653 201.472C496.127 201.472 496.488 201.533 496.734 201.656V203.924ZM507.714 212.216C507.714 211.557 507.463 211.047 506.962 210.687C506.47 210.318 505.604 210.001 504.365 209.738C503.135 209.474 502.155 209.158 501.425 208.789C500.705 208.419 500.168 207.98 499.817 207.47C499.474 206.96 499.303 206.354 499.303 205.651C499.303 204.482 499.795 203.493 500.779 202.685C501.772 201.876 503.038 201.472 504.576 201.472C506.193 201.472 507.503 201.889 508.505 202.724C509.516 203.559 510.021 204.627 510.021 205.928H507.569C507.569 205.26 507.283 204.684 506.712 204.201C506.149 203.717 505.437 203.476 504.576 203.476C503.688 203.476 502.994 203.669 502.493 204.056C501.992 204.442 501.742 204.948 501.742 205.572C501.742 206.161 501.975 206.604 502.44 206.903C502.906 207.202 503.746 207.488 504.958 207.76C506.18 208.033 507.169 208.358 507.925 208.736C508.681 209.114 509.239 209.571 509.599 210.107C509.968 210.634 510.153 211.28 510.153 212.045C510.153 213.319 509.643 214.343 508.624 215.117C507.604 215.881 506.281 216.264 504.655 216.264C503.513 216.264 502.502 216.062 501.623 215.657C500.744 215.253 500.054 214.69 499.553 213.97C499.061 213.24 498.815 212.454 498.815 211.61H501.254C501.298 212.427 501.623 213.078 502.229 213.561C502.845 214.036 503.653 214.273 504.655 214.273C505.578 214.273 506.316 214.088 506.87 213.719C507.433 213.341 507.714 212.84 507.714 212.216ZM519.669 216.264C517.736 216.264 516.163 215.631 514.95 214.365C513.737 213.091 513.13 211.39 513.13 209.263V208.815C513.13 207.4 513.398 206.139 513.935 205.031C514.48 203.915 515.235 203.045 516.202 202.421C517.178 201.788 518.232 201.472 519.366 201.472C521.221 201.472 522.662 202.083 523.69 203.304C524.719 204.526 525.233 206.275 525.233 208.551V209.566H515.569C515.605 210.973 516.013 212.111 516.795 212.981C517.586 213.842 518.588 214.273 519.801 214.273C520.663 214.273 521.392 214.097 521.99 213.746C522.587 213.394 523.11 212.928 523.559 212.348L525.048 213.508C523.853 215.345 522.06 216.264 519.669 216.264ZM519.366 203.476C518.382 203.476 517.556 203.836 516.888 204.557C516.22 205.269 515.807 206.271 515.648 207.562H522.794V207.378C522.724 206.139 522.39 205.181 521.792 204.504C521.194 203.818 520.386 203.476 519.366 203.476ZM538.914 198.281V201.735H541.577V203.621H538.914V212.467C538.914 213.038 539.032 213.469 539.27 213.759C539.507 214.04 539.911 214.181 540.483 214.181C540.764 214.181 541.151 214.128 541.643 214.022V216C541.001 216.176 540.377 216.264 539.771 216.264C538.681 216.264 537.859 215.934 537.305 215.275C536.752 214.616 536.475 213.68 536.475 212.467V203.621H533.878V201.735H536.475V198.281H538.914ZM550.777 216.264C548.844 216.264 547.27 215.631 546.057 214.365C544.845 213.091 544.238 211.39 544.238 209.263V208.815C544.238 207.4 544.506 206.139 545.042 205.031C545.587 203.915 546.343 203.045 547.31 202.421C548.285 201.788 549.34 201.472 550.474 201.472C552.328 201.472 553.77 202.083 554.798 203.304C555.826 204.526 556.341 206.275 556.341 208.551V209.566H546.677C546.712 210.973 547.121 212.111 547.903 212.981C548.694 213.842 549.696 214.273 550.909 214.273C551.77 214.273 552.5 214.097 553.097 213.746C553.695 213.394 554.218 212.928 554.666 212.348L556.156 213.508C554.961 215.345 553.168 216.264 550.777 216.264ZM550.474 203.476C549.49 203.476 548.663 203.836 547.995 204.557C547.327 205.269 546.914 206.271 546.756 207.562H553.902V207.378C553.831 206.139 553.497 205.181 552.9 204.504C552.302 203.818 551.493 203.476 550.474 203.476ZM561.889 201.735L561.955 203.317C563.001 202.087 564.411 201.472 566.187 201.472C568.182 201.472 569.54 202.236 570.261 203.766C570.735 203.08 571.35 202.526 572.106 202.104C572.871 201.683 573.772 201.472 574.809 201.472C577.938 201.472 579.529 203.128 579.581 206.442V216H577.142V206.587C577.142 205.567 576.91 204.807 576.444 204.306C575.978 203.796 575.196 203.542 574.097 203.542C573.192 203.542 572.44 203.814 571.843 204.359C571.245 204.895 570.898 205.62 570.801 206.534V216H568.349V206.653C568.349 204.579 567.334 203.542 565.304 203.542C563.704 203.542 562.61 204.223 562.021 205.585V216H559.582V201.735H561.889ZM595.743 209.026C595.743 211.197 595.246 212.946 594.253 214.273C593.26 215.6 591.915 216.264 590.219 216.264C588.487 216.264 587.125 215.714 586.132 214.616V221.484H583.693V201.735H585.921L586.04 203.317C587.033 202.087 588.413 201.472 590.179 201.472C591.893 201.472 593.247 202.118 594.24 203.41C595.242 204.702 595.743 206.499 595.743 208.802V209.026ZM593.304 208.749C593.304 207.141 592.961 205.871 592.275 204.939C591.59 204.007 590.649 203.542 589.454 203.542C587.977 203.542 586.87 204.196 586.132 205.506V212.322C586.861 213.623 587.977 214.273 589.48 214.273C590.649 214.273 591.577 213.812 592.262 212.889C592.956 211.957 593.304 210.577 593.304 208.749ZM601.924 216H599.485V195.75H601.924V216ZM615.066 216C614.925 215.719 614.811 215.218 614.723 214.497C613.589 215.675 612.236 216.264 610.663 216.264C609.256 216.264 608.101 215.868 607.195 215.077C606.299 214.277 605.851 213.267 605.851 212.045C605.851 210.56 606.413 209.408 607.538 208.591C608.672 207.765 610.263 207.352 612.311 207.352H614.684V206.231C614.684 205.378 614.429 204.702 613.919 204.201C613.409 203.691 612.658 203.436 611.665 203.436C610.795 203.436 610.065 203.656 609.476 204.095C608.887 204.535 608.593 205.066 608.593 205.69H606.141C606.141 204.979 606.391 204.293 606.892 203.634C607.402 202.966 608.088 202.438 608.949 202.052C609.819 201.665 610.773 201.472 611.81 201.472C613.453 201.472 614.741 201.885 615.672 202.711C616.604 203.528 617.088 204.658 617.123 206.099V212.665C617.123 213.974 617.29 215.016 617.624 215.789V216H615.066ZM611.019 214.141C611.783 214.141 612.508 213.943 613.194 213.548C613.88 213.152 614.376 212.638 614.684 212.005V209.079H612.772C609.784 209.079 608.29 209.953 608.29 211.702C608.29 212.467 608.545 213.064 609.054 213.495C609.564 213.926 610.219 214.141 611.019 214.141ZM624.675 198.281V201.735H627.338V203.621H624.675V212.467C624.675 213.038 624.794 213.469 625.031 213.759C625.268 214.04 625.673 214.181 626.244 214.181C626.525 214.181 626.912 214.128 627.404 214.022V216C626.762 216.176 626.138 216.264 625.532 216.264C624.442 216.264 623.62 215.934 623.067 215.275C622.513 214.616 622.236 213.68 622.236 212.467V203.621H619.639V201.735H622.236V198.281H624.675ZM636.538 216.264C634.605 216.264 633.032 215.631 631.819 214.365C630.606 213.091 629.999 211.39 629.999 209.263V208.815C629.999 207.4 630.267 206.139 630.803 205.031C631.348 203.915 632.104 203.045 633.071 202.421C634.047 201.788 635.101 201.472 636.235 201.472C638.09 201.472 639.531 202.083 640.559 203.304C641.588 204.526 642.102 206.275 642.102 208.551V209.566H632.438C632.473 210.973 632.882 212.111 633.664 212.981C634.455 213.842 635.457 214.273 636.67 214.273C637.532 214.273 638.261 214.097 638.859 213.746C639.456 213.394 639.979 212.928 640.428 212.348L641.917 213.508C640.722 215.345 638.929 216.264 636.538 216.264ZM636.235 203.476C635.251 203.476 634.425 203.836 633.757 204.557C633.089 205.269 632.676 206.271 632.517 207.562H639.663V207.378C639.593 206.139 639.259 205.181 638.661 204.504C638.063 203.818 637.255 203.476 636.235 203.476ZM661.28 216C661.14 215.719 661.025 215.218 660.937 214.497C659.804 215.675 658.45 216.264 656.877 216.264C655.471 216.264 654.315 215.868 653.41 215.077C652.513 214.277 652.065 213.267 652.065 212.045C652.065 210.56 652.627 209.408 653.752 208.591C654.886 207.765 656.477 207.352 658.525 207.352H660.898V206.231C660.898 205.378 660.643 204.702 660.133 204.201C659.623 203.691 658.872 203.436 657.879 203.436C657.009 203.436 656.279 203.656 655.69 204.095C655.102 204.535 654.807 205.066 654.807 205.69H652.355C652.355 204.979 652.605 204.293 653.106 203.634C653.616 202.966 654.302 202.438 655.163 202.052C656.033 201.665 656.987 201.472 658.024 201.472C659.667 201.472 660.955 201.885 661.887 202.711C662.818 203.528 663.302 204.658 663.337 206.099V212.665C663.337 213.974 663.504 215.016 663.838 215.789V216H661.28ZM657.233 214.141C657.997 214.141 658.723 213.943 659.408 213.548C660.094 213.152 660.59 212.638 660.898 212.005V209.079H658.986C655.998 209.079 654.504 209.953 654.504 211.702C654.504 212.467 654.759 213.064 655.268 213.495C655.778 213.926 656.433 214.141 657.233 214.141ZM669.887 201.735L669.966 203.528C671.056 202.157 672.48 201.472 674.238 201.472C677.252 201.472 678.773 203.172 678.799 206.574V216H676.36V206.561C676.352 205.532 676.114 204.772 675.648 204.28C675.191 203.788 674.475 203.542 673.5 203.542C672.708 203.542 672.014 203.752 671.417 204.174C670.819 204.596 670.353 205.15 670.019 205.835V216H667.58V201.735H669.887ZM682.304 208.749C682.304 206.561 682.823 204.803 683.86 203.476C684.897 202.14 686.255 201.472 687.934 201.472C689.604 201.472 690.926 202.043 691.902 203.186V195.75H694.341V216H692.1L691.981 214.471C691.005 215.666 689.648 216.264 687.907 216.264C686.255 216.264 684.906 215.587 683.86 214.233C682.823 212.88 682.304 211.113 682.304 208.934V208.749ZM684.743 209.026C684.743 210.643 685.077 211.909 685.745 212.823C686.413 213.737 687.336 214.194 688.514 214.194C690.061 214.194 691.19 213.5 691.902 212.111V205.559C691.172 204.214 690.052 203.542 688.54 203.542C687.345 203.542 686.413 204.003 685.745 204.926C685.077 205.849 684.743 207.215 684.743 209.026ZM713.981 212.216C713.981 211.557 713.73 211.047 713.229 210.687C712.737 210.318 711.871 210.001 710.632 209.738C709.402 209.474 708.422 209.158 707.692 208.789C706.971 208.419 706.435 207.98 706.084 207.47C705.741 206.96 705.57 206.354 705.57 205.651C705.57 204.482 706.062 203.493 707.046 202.685C708.039 201.876 709.305 201.472 710.843 201.472C712.46 201.472 713.77 201.889 714.772 202.724C715.782 203.559 716.288 204.627 716.288 205.928H713.836C713.836 205.26 713.55 204.684 712.979 204.201C712.416 203.717 711.704 203.476 710.843 203.476C709.955 203.476 709.261 203.669 708.76 204.056C708.259 204.442 708.009 204.948 708.009 205.572C708.009 206.161 708.241 206.604 708.707 206.903C709.173 207.202 710.012 207.488 711.225 207.76C712.447 208.033 713.436 208.358 714.192 208.736C714.948 209.114 715.506 209.571 715.866 210.107C716.235 210.634 716.42 211.28 716.42 212.045C716.42 213.319 715.91 214.343 714.89 215.117C713.871 215.881 712.548 216.264 710.922 216.264C709.78 216.264 708.769 216.062 707.89 215.657C707.011 215.253 706.321 214.69 705.82 213.97C705.328 213.24 705.082 212.454 705.082 211.61H707.521C707.565 212.427 707.89 213.078 708.496 213.561C709.112 214.036 709.92 214.273 710.922 214.273C711.845 214.273 712.583 214.088 713.137 213.719C713.699 213.341 713.981 212.84 713.981 212.216ZM723.326 198.281V201.735H725.989V203.621H723.326V212.467C723.326 213.038 723.445 213.469 723.682 213.759C723.919 214.04 724.324 214.181 724.895 214.181C725.176 214.181 725.563 214.128 726.055 214.022V216C725.413 216.176 724.789 216.264 724.183 216.264C723.093 216.264 722.271 215.934 721.718 215.275C721.164 214.616 720.887 213.68 720.887 212.467V203.621H718.29V201.735H720.887V198.281H723.326ZM738.077 216C737.936 215.719 737.822 215.218 737.734 214.497C736.6 215.675 735.246 216.264 733.673 216.264C732.267 216.264 731.111 215.868 730.206 215.077C729.309 214.277 728.861 213.267 728.861 212.045C728.861 210.56 729.424 209.408 730.549 208.591C731.683 207.765 733.273 207.352 735.321 207.352H737.694V206.231C737.694 205.378 737.439 204.702 736.93 204.201C736.42 203.691 735.668 203.436 734.675 203.436C733.805 203.436 733.076 203.656 732.487 204.095C731.898 204.535 731.603 205.066 731.603 205.69H729.151C729.151 204.979 729.402 204.293 729.903 203.634C730.413 202.966 731.098 202.438 731.959 202.052C732.829 201.665 733.783 201.472 734.82 201.472C736.464 201.472 737.751 201.885 738.683 202.711C739.615 203.528 740.098 204.658 740.133 206.099V212.665C740.133 213.974 740.3 215.016 740.634 215.789V216H738.077ZM734.029 214.141C734.794 214.141 735.519 213.943 736.204 213.548C736.89 213.152 737.387 212.638 737.694 212.005V209.079H735.783C732.794 209.079 731.3 209.953 731.3 211.702C731.3 212.467 731.555 213.064 732.065 213.495C732.575 213.926 733.229 214.141 734.029 214.141ZM751.271 203.924C750.902 203.862 750.502 203.832 750.072 203.832C748.472 203.832 747.387 204.513 746.815 205.875V216H744.376V201.735H746.75L746.789 203.383C747.589 202.109 748.723 201.472 750.19 201.472C750.665 201.472 751.025 201.533 751.271 201.656V203.924ZM757.914 198.281V201.735H760.577V203.621H757.914V212.467C757.914 213.038 758.033 213.469 758.27 213.759C758.507 214.04 758.912 214.181 759.483 214.181C759.764 214.181 760.151 214.128 760.643 214.022V216C760.002 216.176 759.378 216.264 758.771 216.264C757.681 216.264 756.859 215.934 756.306 215.275C755.752 214.616 755.475 213.68 755.475 212.467V203.621H752.878V201.735H755.475V198.281H757.914ZM774.284 198.281V201.735H776.947V203.621H774.284V212.467C774.284 213.038 774.403 213.469 774.64 213.759C774.878 214.04 775.282 214.181 775.853 214.181C776.134 214.181 776.521 214.128 777.013 214.022V216C776.372 216.176 775.748 216.264 775.141 216.264C774.051 216.264 773.23 215.934 772.676 215.275C772.122 214.616 771.845 213.68 771.845 212.467V203.621H769.248V201.735H771.845V198.281H774.284ZM779.319 208.736C779.319 207.338 779.591 206.082 780.136 204.965C780.69 203.849 781.454 202.988 782.43 202.381C783.414 201.775 784.535 201.472 785.792 201.472C787.734 201.472 789.303 202.144 790.498 203.489C791.702 204.833 792.305 206.622 792.305 208.854V209.026C792.305 210.415 792.036 211.663 791.5 212.77C790.973 213.869 790.213 214.726 789.22 215.341C788.235 215.956 787.101 216.264 785.818 216.264C783.885 216.264 782.316 215.591 781.112 214.247C779.916 212.902 779.319 211.122 779.319 208.907V208.736ZM781.771 209.026C781.771 210.608 782.136 211.878 782.865 212.836C783.603 213.794 784.588 214.273 785.818 214.273C787.057 214.273 788.042 213.79 788.771 212.823C789.501 211.847 789.866 210.485 789.866 208.736C789.866 207.171 789.492 205.906 788.745 204.939C788.007 203.963 787.022 203.476 785.792 203.476C784.588 203.476 783.617 203.955 782.878 204.913C782.14 205.871 781.771 207.242 781.771 209.026ZM795.19 208.749C795.19 206.561 795.708 204.803 796.746 203.476C797.783 202.14 799.141 201.472 800.819 201.472C802.489 201.472 803.812 202.043 804.788 203.186V195.75H807.226V216H804.985L804.867 214.471C803.891 215.666 802.533 216.264 800.793 216.264C799.141 216.264 797.791 215.587 796.746 214.233C795.708 212.88 795.19 211.113 795.19 208.934V208.749ZM797.629 209.026C797.629 210.643 797.963 211.909 798.631 212.823C799.299 213.737 800.222 214.194 801.399 214.194C802.946 214.194 804.076 213.5 804.788 212.111V205.559C804.058 204.214 802.937 203.542 801.426 203.542C800.23 203.542 799.299 204.003 798.631 204.926C797.963 205.849 797.629 207.215 797.629 209.026ZM820.25 216C820.109 215.719 819.995 215.218 819.907 214.497C818.773 215.675 817.42 216.264 815.847 216.264C814.44 216.264 813.285 215.868 812.379 215.077C811.483 214.277 811.035 213.267 811.035 212.045C811.035 210.56 811.597 209.408 812.722 208.591C813.856 207.765 815.447 207.352 817.495 207.352H819.868V206.231C819.868 205.378 819.613 204.702 819.103 204.201C818.593 203.691 817.842 203.436 816.849 203.436C815.978 203.436 815.249 203.656 814.66 204.095C814.071 204.535 813.777 205.066 813.777 205.69H811.325C811.325 204.979 811.575 204.293 812.076 203.634C812.586 202.966 813.271 202.438 814.133 202.052C815.003 201.665 815.957 201.472 816.994 201.472C818.637 201.472 819.925 201.885 820.856 202.711C821.788 203.528 822.271 204.658 822.307 206.099V212.665C822.307 213.974 822.474 215.016 822.808 215.789V216H820.25ZM816.203 214.141C816.967 214.141 817.692 213.943 818.378 213.548C819.063 213.152 819.56 212.638 819.868 212.005V209.079H817.956C814.968 209.079 813.474 209.953 813.474 211.702C813.474 212.467 813.728 213.064 814.238 213.495C814.748 213.926 815.403 214.141 816.203 214.141ZM831.006 212.427L834.328 201.735H836.939L831.204 218.202C830.316 220.575 828.905 221.761 826.972 221.761L826.51 221.722L825.601 221.55V219.573L826.26 219.625C827.086 219.625 827.728 219.458 828.185 219.125C828.65 218.791 829.033 218.18 829.332 217.292L829.872 215.842L824.783 201.735H827.446L831.006 212.427ZM851.74 208.841H845.306V206.851H851.74V208.841ZM873.713 209.026C873.713 211.197 873.217 212.946 872.224 214.273C871.23 215.6 869.886 216.264 868.189 216.264C866.458 216.264 865.096 215.714 864.102 214.616V221.484H861.663V201.735H863.891L864.01 203.317C865.003 202.087 866.383 201.472 868.15 201.472C869.864 201.472 871.217 202.118 872.21 203.41C873.212 204.702 873.713 206.499 873.713 208.802V209.026ZM871.274 208.749C871.274 207.141 870.932 205.871 870.246 204.939C869.56 204.007 868.62 203.542 867.425 203.542C865.948 203.542 864.841 204.196 864.102 205.506V212.322C864.832 213.623 865.948 214.273 867.451 214.273C868.62 214.273 869.547 213.812 870.233 212.889C870.927 211.957 871.274 210.577 871.274 208.749ZM883.164 216.264C881.23 216.264 879.657 215.631 878.444 214.365C877.231 213.091 876.625 211.39 876.625 209.263V208.815C876.625 207.4 876.893 206.139 877.429 205.031C877.974 203.915 878.73 203.045 879.697 202.421C880.672 201.788 881.727 201.472 882.861 201.472C884.715 201.472 886.157 202.083 887.185 203.304C888.213 204.526 888.728 206.275 888.728 208.551V209.566H879.064C879.099 210.973 879.508 212.111 880.29 212.981C881.081 213.842 882.083 214.273 883.296 214.273C884.157 214.273 884.887 214.097 885.484 213.746C886.082 213.394 886.605 212.928 887.053 212.348L888.543 213.508C887.348 215.345 885.555 216.264 883.164 216.264ZM882.861 203.476C881.876 203.476 881.05 203.836 880.382 204.557C879.714 205.269 879.301 206.271 879.143 207.562H886.289V207.378C886.218 206.139 885.884 205.181 885.287 204.504C884.689 203.818 883.88 203.476 882.861 203.476ZM891.336 208.736C891.336 207.338 891.608 206.082 892.153 204.965C892.707 203.849 893.472 202.988 894.447 202.381C895.432 201.775 896.552 201.472 897.809 201.472C899.751 201.472 901.32 202.144 902.516 203.489C903.72 204.833 904.322 206.622 904.322 208.854V209.026C904.322 210.415 904.054 211.663 903.518 212.77C902.99 213.869 902.23 214.726 901.237 215.341C900.252 215.956 899.119 216.264 897.835 216.264C895.902 216.264 894.333 215.591 893.129 214.247C891.934 212.902 891.336 211.122 891.336 208.907V208.736ZM893.788 209.026C893.788 210.608 894.153 211.878 894.882 212.836C895.621 213.794 896.605 214.273 897.835 214.273C899.075 214.273 900.059 213.79 900.789 212.823C901.518 211.847 901.883 210.485 901.883 208.736C901.883 207.171 901.509 205.906 900.762 204.939C900.024 203.963 899.04 203.476 897.809 203.476C896.605 203.476 895.634 203.955 894.896 204.913C894.157 205.871 893.788 207.242 893.788 209.026ZM919.85 209.026C919.85 211.197 919.354 212.946 918.36 214.273C917.367 215.6 916.023 216.264 914.326 216.264C912.595 216.264 911.233 215.714 910.239 214.616V221.484H907.8V201.735H910.028L910.147 203.317C911.14 202.087 912.52 201.472 914.287 201.472C916.001 201.472 917.354 202.118 918.347 203.41C919.349 204.702 919.85 206.499 919.85 208.802V209.026ZM917.411 208.749C917.411 207.141 917.068 205.871 916.383 204.939C915.697 204.007 914.757 203.542 913.562 203.542C912.085 203.542 910.978 204.196 910.239 205.506V212.322C910.969 213.623 912.085 214.273 913.588 214.273C914.757 214.273 915.684 213.812 916.37 212.889C917.064 211.957 917.411 210.577 917.411 208.749ZM926.031 216H923.593V195.75H926.031V216ZM936.286 216.264C934.353 216.264 932.78 215.631 931.567 214.365C930.354 213.091 929.747 211.39 929.747 209.263V208.815C929.747 207.4 930.015 206.139 930.552 205.031C931.096 203.915 931.852 203.045 932.819 202.421C933.795 201.788 934.849 201.472 935.983 201.472C937.838 201.472 939.279 202.083 940.307 203.304C941.336 204.526 941.85 206.275 941.85 208.551V209.566H932.186C932.221 210.973 932.63 212.111 933.412 212.981C934.203 213.842 935.205 214.273 936.418 214.273C937.28 214.273 938.009 214.097 938.607 213.746C939.204 213.394 939.727 212.928 940.176 212.348L941.665 213.508C940.47 215.345 938.677 216.264 936.286 216.264ZM935.983 203.476C934.999 203.476 934.173 203.836 933.505 204.557C932.837 205.269 932.424 206.271 932.265 207.562H939.411V207.378C939.341 206.139 939.007 205.181 938.409 204.504C937.811 203.818 937.003 203.476 935.983 203.476ZM964.851 212.638L967.594 201.735H970.033L965.88 216H963.902L960.435 205.189L957.06 216H955.082L950.943 201.735H953.369L956.177 212.414L959.499 201.735H961.463L964.851 212.638ZM975.594 216H973.155V201.735H975.594V216ZM972.958 197.952C972.958 197.556 973.076 197.222 973.313 196.95C973.56 196.677 973.92 196.541 974.395 196.541C974.869 196.541 975.229 196.677 975.476 196.95C975.722 197.222 975.845 197.556 975.845 197.952C975.845 198.347 975.722 198.677 975.476 198.94C975.229 199.204 974.869 199.336 974.395 199.336C973.92 199.336 973.56 199.204 973.313 198.94C973.076 198.677 972.958 198.347 972.958 197.952ZM982.58 216H980.141V195.75H982.58V216ZM989.565 216H987.126V195.75H989.565V216ZM1003.67 216H1001.23V195.75H1003.67V216ZM1007.36 208.736C1007.36 207.338 1007.63 206.082 1008.17 204.965C1008.73 203.849 1009.49 202.988 1010.47 202.381C1011.45 201.775 1012.57 201.472 1013.83 201.472C1015.77 201.472 1017.34 202.144 1018.54 203.489C1019.74 204.833 1020.34 206.622 1020.34 208.854V209.026C1020.34 210.415 1020.08 211.663 1019.54 212.77C1019.01 213.869 1018.25 214.726 1017.26 215.341C1016.27 215.956 1015.14 216.264 1013.86 216.264C1011.92 216.264 1010.35 215.591 1009.15 214.247C1007.95 212.902 1007.36 211.122 1007.36 208.907V208.736ZM1009.81 209.026C1009.81 210.608 1010.17 211.878 1010.9 212.836C1011.64 213.794 1012.63 214.273 1013.86 214.273C1015.1 214.273 1016.08 213.79 1016.81 212.823C1017.54 211.847 1017.9 210.485 1017.9 208.736C1017.9 207.171 1017.53 205.906 1016.78 204.939C1016.05 203.963 1015.06 203.476 1013.83 203.476C1012.63 203.476 1011.66 203.955 1010.92 204.913C1010.18 205.871 1009.81 207.242 1009.81 209.026ZM1028.32 212.691L1031.85 201.735H1034.34L1029.23 216H1027.37L1022.2 201.735H1024.69L1028.32 212.691ZM1042.84 216.264C1040.91 216.264 1039.34 215.631 1038.12 214.365C1036.91 213.091 1036.3 211.39 1036.3 209.263V208.815C1036.3 207.4 1036.57 206.139 1037.11 205.031C1037.65 203.915 1038.41 203.045 1039.38 202.421C1040.35 201.788 1041.41 201.472 1042.54 201.472C1044.4 201.472 1045.84 202.083 1046.86 203.304C1047.89 204.526 1048.41 206.275 1048.41 208.551V209.566H1038.74C1038.78 210.973 1039.19 212.111 1039.97 212.981C1040.76 213.842 1041.76 214.273 1042.98 214.273C1043.84 214.273 1044.57 214.097 1045.16 213.746C1045.76 213.394 1046.28 212.928 1046.73 212.348L1048.22 213.508C1047.03 215.345 1045.23 216.264 1042.84 216.264ZM1042.54 203.476C1041.56 203.476 1040.73 203.836 1040.06 204.557C1039.39 205.269 1038.98 206.271 1038.82 207.562H1045.97V207.378C1045.9 206.139 1045.56 205.181 1044.97 204.504C1044.37 203.818 1043.56 203.476 1042.54 203.476ZM1061.43 216H1058.99V201.735H1061.43V216ZM1058.79 197.952C1058.79 197.556 1058.91 197.222 1059.15 196.95C1059.39 196.677 1059.75 196.541 1060.23 196.541C1060.7 196.541 1061.06 196.677 1061.31 196.95C1061.56 197.222 1061.68 197.556 1061.68 197.952C1061.68 198.347 1061.56 198.677 1061.31 198.94C1061.06 199.204 1060.7 199.336 1060.23 199.336C1059.75 199.336 1059.39 199.204 1059.15 198.94C1058.91 198.677 1058.79 198.347 1058.79 197.952ZM1069.07 198.281V201.735H1071.74V203.621H1069.07V212.467C1069.07 213.038 1069.19 213.469 1069.43 213.759C1069.67 214.04 1070.07 214.181 1070.64 214.181C1070.92 214.181 1071.31 214.128 1071.8 214.022V216C1071.16 216.176 1070.54 216.264 1069.93 216.264C1068.84 216.264 1068.02 215.934 1067.47 215.275C1066.91 214.616 1066.63 213.68 1066.63 212.467V203.621H1064.04V201.735H1066.63V198.281H1069.07ZM1077.75 210.582H1075.54L1075.37 196.805H1077.93L1077.75 210.582ZM1075.28 214.774C1075.28 214.378 1075.4 214.049 1075.64 213.785C1075.88 213.513 1076.24 213.376 1076.72 213.376C1077.19 213.376 1077.55 213.513 1077.8 213.785C1078.05 214.049 1078.17 214.378 1078.17 214.774C1078.17 215.169 1078.05 215.499 1077.8 215.763C1077.55 216.018 1077.19 216.145 1076.72 216.145C1076.24 216.145 1075.88 216.018 1075.64 215.763C1075.4 215.499 1075.28 215.169 1075.28 214.774Z" fill="white" fill-opacity="0.7"/>
<rect width="281" height="66" transform="translate(580 297)" fill="#FF4343"/>
<path d="M828.358 307.635C827.481 306.733 826.068 306.742 825.201 307.654C824.335 308.566 824.343 310.036 825.22 310.937L837.619 323.679H807.143C805.91 323.679 804.911 324.718 804.911 326C804.911 327.282 805.91 328.321 807.143 328.321H837.615L825.22 341.059C824.343 341.96 824.335 343.43 825.201 344.342C826.068 345.254 827.481 345.263 828.358 344.361L844.299 327.979C845.36 326.889 845.36 325.107 844.299 324.016L828.358 307.635Z" fill="white" stroke="white" stroke-width="0.5"/>
<path d="M623.926 328.812C623.724 330.541 623.083 331.877 622.005 332.821C620.935 333.757 619.508 334.225 617.727 334.225C615.795 334.225 614.245 333.532 613.077 332.147C611.917 330.762 611.336 328.909 611.336 326.588V325.016C611.336 323.496 611.606 322.159 612.145 321.006C612.692 319.853 613.463 318.97 614.458 318.356C615.454 317.735 616.607 317.424 617.917 317.424C619.654 317.424 621.047 317.91 622.095 318.884C623.143 319.85 623.754 321.19 623.926 322.904H621.758C621.571 321.602 621.163 320.658 620.534 320.074C619.913 319.49 619.041 319.198 617.917 319.198C616.54 319.198 615.458 319.707 614.672 320.726C613.893 321.744 613.504 323.193 613.504 325.072V326.655C613.504 328.43 613.875 329.841 614.616 330.889C615.357 331.937 616.394 332.461 617.727 332.461C618.924 332.461 619.842 332.192 620.478 331.653C621.122 331.106 621.549 330.159 621.758 328.812H623.926ZM632.847 323.713C632.533 323.66 632.192 323.634 631.825 323.634C630.463 323.634 629.538 324.215 629.051 325.375V334H626.974V321.849H628.995L629.029 323.252C629.71 322.167 630.676 321.624 631.926 321.624C632.331 321.624 632.638 321.676 632.847 321.781V323.713ZM640.006 334.225C638.358 334.225 637.018 333.686 635.985 332.607C634.952 331.522 634.435 330.073 634.435 328.261V327.879C634.435 326.674 634.664 325.6 635.12 324.656C635.584 323.705 636.228 322.964 637.052 322.433C637.883 321.894 638.781 321.624 639.747 321.624C641.327 321.624 642.555 322.144 643.431 323.185C644.307 324.226 644.745 325.716 644.745 327.655V328.52H636.513C636.543 329.717 636.891 330.687 637.557 331.428C638.231 332.162 639.085 332.529 640.118 332.529C640.852 332.529 641.473 332.379 641.982 332.08C642.491 331.78 642.937 331.383 643.319 330.889L644.588 331.877C643.569 333.442 642.042 334.225 640.006 334.225ZM639.747 323.331C638.909 323.331 638.205 323.638 637.636 324.252C637.067 324.858 636.715 325.712 636.58 326.812H642.667V326.655C642.607 325.6 642.323 324.784 641.814 324.207C641.305 323.623 640.616 323.331 639.747 323.331ZM655.081 334C654.961 333.76 654.864 333.334 654.789 332.72C653.823 333.723 652.67 334.225 651.33 334.225C650.132 334.225 649.148 333.888 648.377 333.214C647.613 332.533 647.231 331.672 647.231 330.631C647.231 329.366 647.71 328.385 648.669 327.688C649.635 326.985 650.99 326.633 652.734 326.633H654.756V325.678C654.756 324.952 654.538 324.375 654.104 323.949C653.67 323.514 653.03 323.297 652.184 323.297C651.443 323.297 650.821 323.485 650.32 323.859C649.818 324.233 649.567 324.686 649.567 325.218H647.478C647.478 324.611 647.692 324.027 648.118 323.466C648.553 322.897 649.137 322.448 649.87 322.118C650.612 321.789 651.424 321.624 652.307 321.624C653.707 321.624 654.804 321.976 655.598 322.68C656.392 323.376 656.803 324.338 656.833 325.566V331.159C656.833 332.274 656.975 333.161 657.26 333.82V334H655.081ZM651.634 332.417C652.285 332.417 652.903 332.248 653.487 331.911C654.071 331.574 654.494 331.136 654.756 330.597V328.104H653.127C650.582 328.104 649.309 328.849 649.309 330.339C649.309 330.99 649.526 331.499 649.96 331.866C650.394 332.233 650.952 332.417 651.634 332.417ZM663.329 318.906V321.849H665.597V323.455H663.329V330.99C663.329 331.477 663.43 331.844 663.632 332.091C663.834 332.33 664.179 332.45 664.665 332.45C664.905 332.45 665.234 332.405 665.654 332.315V334C665.107 334.15 664.576 334.225 664.059 334.225C663.131 334.225 662.43 333.944 661.959 333.382C661.487 332.821 661.251 332.023 661.251 330.99V323.455H659.039V321.849H661.251V318.906H663.329ZM673.497 334.225C671.85 334.225 670.51 333.686 669.476 332.607C668.443 331.522 667.927 330.073 667.927 328.261V327.879C667.927 326.674 668.155 325.6 668.612 324.656C669.076 323.705 669.72 322.964 670.543 322.433C671.374 321.894 672.273 321.624 673.239 321.624C674.818 321.624 676.046 322.144 676.922 323.185C677.798 324.226 678.236 325.716 678.236 327.655V328.52H670.004C670.034 329.717 670.382 330.687 671.049 331.428C671.723 332.162 672.576 332.529 673.609 332.529C674.343 332.529 674.964 332.379 675.474 332.08C675.983 331.78 676.428 331.383 676.81 330.889L678.079 331.877C677.061 333.442 675.533 334.225 673.497 334.225ZM673.239 323.331C672.4 323.331 671.696 323.638 671.127 324.252C670.558 324.858 670.206 325.712 670.072 326.812H676.159V326.655C676.099 325.6 675.814 324.784 675.305 324.207C674.796 323.623 674.107 323.331 673.239 323.331ZM694.698 334C694.578 333.76 694.481 333.334 694.406 332.72C693.44 333.723 692.287 334.225 690.947 334.225C689.749 334.225 688.764 333.888 687.993 333.214C687.23 332.533 686.848 331.672 686.848 330.631C686.848 329.366 687.327 328.385 688.285 327.688C689.251 326.985 690.606 326.633 692.351 326.633H694.372V325.678C694.372 324.952 694.155 324.375 693.721 323.949C693.287 323.514 692.646 323.297 691.8 323.297C691.059 323.297 690.438 323.485 689.936 323.859C689.434 324.233 689.184 324.686 689.184 325.218H687.095C687.095 324.611 687.308 324.027 687.735 323.466C688.169 322.897 688.753 322.448 689.487 322.118C690.228 321.789 691.04 321.624 691.924 321.624C693.324 321.624 694.421 321.976 695.214 322.68C696.008 323.376 696.42 324.338 696.45 325.566V331.159C696.45 332.274 696.592 333.161 696.877 333.82V334H694.698ZM691.25 332.417C691.901 332.417 692.519 332.248 693.103 331.911C693.687 331.574 694.11 331.136 694.372 330.597V328.104H692.744C690.198 328.104 688.925 328.849 688.925 330.339C688.925 330.99 689.142 331.499 689.577 331.866C690.011 332.233 690.569 332.417 691.25 332.417ZM711.126 332.529C711.867 332.529 712.515 332.304 713.069 331.855C713.623 331.406 713.93 330.844 713.989 330.17H715.955C715.917 330.867 715.678 331.529 715.236 332.158C714.794 332.787 714.203 333.289 713.462 333.663C712.728 334.037 711.949 334.225 711.126 334.225C709.471 334.225 708.153 333.674 707.173 332.574C706.199 331.466 705.713 329.953 705.713 328.037V327.688C705.713 326.506 705.93 325.454 706.364 324.533C706.798 323.612 707.42 322.897 708.228 322.388C709.044 321.879 710.006 321.624 711.114 321.624C712.477 321.624 713.608 322.032 714.506 322.848C715.412 323.664 715.895 324.724 715.955 326.026H713.989C713.93 325.24 713.63 324.596 713.091 324.095C712.559 323.586 711.901 323.331 711.114 323.331C710.059 323.331 709.239 323.713 708.655 324.477C708.079 325.233 707.79 326.33 707.79 327.767V328.16C707.79 329.56 708.079 330.638 708.655 331.395C709.231 332.151 710.055 332.529 711.126 332.529ZM718.16 327.812C718.16 326.622 718.393 325.551 718.857 324.6C719.328 323.649 719.98 322.916 720.811 322.399C721.649 321.882 722.604 321.624 723.675 321.624C725.329 321.624 726.666 322.197 727.684 323.342C728.71 324.488 729.222 326.011 729.222 327.913V328.059C729.222 329.242 728.994 330.305 728.537 331.249C728.088 332.184 727.441 332.914 726.595 333.438C725.756 333.963 724.79 334.225 723.697 334.225C722.05 334.225 720.714 333.652 719.688 332.506C718.67 331.361 718.16 329.845 718.16 327.958V327.812ZM720.249 328.059C720.249 329.407 720.56 330.489 721.181 331.305C721.81 332.121 722.649 332.529 723.697 332.529C724.753 332.529 725.591 332.117 726.213 331.293C726.834 330.462 727.145 329.302 727.145 327.812C727.145 326.479 726.827 325.401 726.19 324.578C725.561 323.747 724.723 323.331 723.675 323.331C722.649 323.331 721.822 323.739 721.193 324.555C720.564 325.371 720.249 326.539 720.249 328.059ZM739.75 332.798C738.941 333.749 737.755 334.225 736.19 334.225C734.895 334.225 733.906 333.85 733.225 333.102C732.551 332.345 732.21 331.23 732.203 329.755V321.849H734.281V329.699C734.281 331.541 735.029 332.461 736.527 332.461C738.114 332.461 739.17 331.87 739.694 330.687V321.849H741.771V334H739.795L739.75 332.798ZM751.232 323.713C750.917 323.66 750.577 323.634 750.21 323.634C748.847 323.634 747.923 324.215 747.436 325.375V334H745.358V321.849H747.38L747.414 323.252C748.095 322.167 749.061 321.624 750.311 321.624C750.715 321.624 751.022 321.676 751.232 321.781V323.713ZM760.648 330.777C760.648 330.215 760.434 329.781 760.007 329.474C759.588 329.16 758.851 328.89 757.795 328.666C756.747 328.441 755.912 328.171 755.291 327.857C754.677 327.542 754.22 327.168 753.92 326.734C753.628 326.3 753.482 325.783 753.482 325.184C753.482 324.188 753.902 323.346 754.74 322.657C755.586 321.968 756.664 321.624 757.975 321.624C759.352 321.624 760.468 321.98 761.321 322.691C762.182 323.402 762.613 324.312 762.613 325.42H760.524C760.524 324.851 760.281 324.361 759.794 323.949C759.315 323.537 758.708 323.331 757.975 323.331C757.218 323.331 756.627 323.496 756.2 323.825C755.773 324.155 755.56 324.585 755.56 325.117C755.56 325.618 755.759 325.996 756.155 326.251C756.552 326.506 757.267 326.749 758.3 326.981C759.341 327.213 760.183 327.49 760.827 327.812C761.471 328.134 761.946 328.523 762.253 328.98C762.568 329.429 762.725 329.979 762.725 330.631C762.725 331.716 762.291 332.589 761.422 333.248C760.554 333.899 759.427 334.225 758.042 334.225C757.069 334.225 756.208 334.052 755.459 333.708C754.71 333.364 754.123 332.884 753.696 332.271C753.277 331.649 753.067 330.979 753.067 330.26H755.145C755.182 330.957 755.459 331.511 755.976 331.922C756.5 332.327 757.189 332.529 758.042 332.529C758.828 332.529 759.457 332.372 759.929 332.057C760.408 331.735 760.648 331.308 760.648 330.777ZM770.894 334.225C769.247 334.225 767.907 333.686 766.874 332.607C765.84 331.522 765.324 330.073 765.324 328.261V327.879C765.324 326.674 765.552 325.6 766.009 324.656C766.473 323.705 767.117 322.964 767.941 322.433C768.772 321.894 769.67 321.624 770.636 321.624C772.216 321.624 773.443 322.144 774.319 323.185C775.195 324.226 775.633 325.716 775.633 327.655V328.52H767.401C767.431 329.717 767.78 330.687 768.446 331.428C769.12 332.162 769.973 332.529 771.006 332.529C771.74 332.529 772.362 332.379 772.871 332.08C773.38 331.78 773.825 331.383 774.207 330.889L775.476 331.877C774.458 333.442 772.931 334.225 770.894 334.225ZM770.636 323.331C769.797 323.331 769.094 323.638 768.525 324.252C767.956 324.858 767.604 325.712 767.469 326.812H773.556V326.655C773.496 325.6 773.211 324.784 772.702 324.207C772.193 323.623 771.504 323.331 770.636 323.331Z" fill="white"/>
<path d="M429.662 118.88L430.524 124.787L431.785 119.465L440.644 88.2109H445.628L454.272 119.465L455.502 124.879L456.456 118.85L463.408 88.2109H469.345L458.486 133H453.103L443.874 100.362L443.167 96.9473L442.459 100.362L432.892 133H427.509L416.681 88.2109H422.587L429.662 118.88ZM482.827 103.746C485.349 100.649 488.63 99.1006 492.67 99.1006C499.705 99.1006 503.253 103.069 503.314 111.005V133H497.623V110.975C497.603 108.575 497.049 106.801 495.962 105.653C494.896 104.504 493.224 103.93 490.948 103.93C489.102 103.93 487.482 104.422 486.087 105.407C484.693 106.391 483.606 107.683 482.827 109.283V133H477.136V85.75H482.827V103.746ZM534.484 133C534.156 132.344 533.889 131.175 533.684 129.493C531.039 132.241 527.88 133.615 524.209 133.615C520.928 133.615 518.231 132.692 516.119 130.847C514.027 128.98 512.981 126.622 512.981 123.771C512.981 120.306 514.294 117.619 516.919 115.712C519.564 113.784 523.276 112.82 528.055 112.82H533.592V110.206C533.592 108.216 532.997 106.637 531.808 105.468C530.618 104.279 528.865 103.684 526.547 103.684C524.517 103.684 522.815 104.197 521.441 105.222C520.067 106.248 519.38 107.488 519.38 108.944H513.658C513.658 107.283 514.243 105.684 515.412 104.146C516.601 102.587 518.201 101.356 520.21 100.454C522.241 99.5518 524.466 99.1006 526.886 99.1006C530.721 99.1006 533.725 100.064 535.899 101.992C538.073 103.899 539.201 106.535 539.283 109.898V125.217C539.283 128.273 539.672 130.703 540.452 132.508V133H534.484ZM525.04 128.663C526.824 128.663 528.516 128.201 530.116 127.278C531.715 126.355 532.874 125.156 533.592 123.679V116.85H529.131C522.159 116.85 518.672 118.891 518.672 122.972C518.672 124.756 519.267 126.15 520.457 127.155C521.646 128.16 523.174 128.663 525.04 128.663ZM558.025 91.6562V99.7158H564.239V104.115H558.025V124.756C558.025 126.089 558.302 127.094 558.855 127.771C559.409 128.427 560.352 128.755 561.685 128.755C562.342 128.755 563.244 128.632 564.392 128.386V133C562.895 133.41 561.439 133.615 560.024 133.615C557.481 133.615 555.564 132.846 554.272 131.308C552.98 129.77 552.334 127.586 552.334 124.756V104.115H546.274V99.7158H552.334V91.6562H558.025ZM620.211 125.156L626.609 99.7158H632.3L622.61 133H617.996L609.905 107.775L602.03 133H597.416L587.757 99.7158H593.417L599.969 124.633L607.721 99.7158H612.305L620.211 125.156ZM646.397 133H640.706V99.7158H646.397V133ZM640.245 90.8872C640.245 89.9644 640.522 89.1851 641.075 88.5493C641.65 87.9136 642.49 87.5957 643.598 87.5957C644.705 87.5957 645.546 87.9136 646.12 88.5493C646.694 89.1851 646.982 89.9644 646.982 90.8872C646.982 91.8101 646.694 92.5791 646.12 93.1943C645.546 93.8096 644.705 94.1172 643.598 94.1172C642.49 94.1172 641.65 93.8096 641.075 93.1943C640.522 92.5791 640.245 91.8101 640.245 90.8872ZM663.816 133H658.125V85.75H663.816V133ZM681.236 133H675.545V85.75H681.236V133ZM721.089 124.664L728.841 99.7158H734.931L721.55 138.137C719.479 143.674 716.187 146.443 711.675 146.443L710.599 146.351L708.476 145.951V141.336L710.014 141.459C711.942 141.459 713.439 141.07 714.506 140.291C715.592 139.511 716.485 138.086 717.182 136.015L718.443 132.631L706.569 99.7158H712.783L721.089 124.664ZM740.138 116.05C740.138 112.79 740.774 109.857 742.046 107.252C743.337 104.648 745.122 102.638 747.398 101.223C749.695 99.8081 752.31 99.1006 755.242 99.1006C759.775 99.1006 763.435 100.669 766.224 103.807C769.034 106.945 770.439 111.118 770.439 116.327V116.727C770.439 119.967 769.813 122.879 768.562 125.463C767.332 128.027 765.558 130.026 763.24 131.462C760.943 132.897 758.298 133.615 755.304 133.615C750.792 133.615 747.131 132.046 744.322 128.909C741.533 125.771 740.138 121.618 740.138 116.45V116.05ZM745.86 116.727C745.86 120.418 746.711 123.382 748.413 125.617C750.136 127.853 752.433 128.97 755.304 128.97C758.195 128.97 760.492 127.842 762.194 125.586C763.897 123.31 764.748 120.131 764.748 116.05C764.748 112.4 763.876 109.447 762.133 107.191C760.41 104.915 758.113 103.776 755.242 103.776C752.433 103.776 750.167 104.894 748.444 107.129C746.721 109.365 745.86 112.564 745.86 116.727ZM800.224 129.708C798.009 132.313 794.759 133.615 790.473 133.615C786.925 133.615 784.218 132.59 782.352 130.539C780.506 128.468 779.573 125.412 779.552 121.372V99.7158H785.243V121.218C785.243 126.263 787.294 128.786 791.396 128.786C795.743 128.786 798.635 127.166 800.07 123.925V99.7158H805.761V133H800.347L800.224 129.708ZM841.984 91.6562V99.7158H848.198V104.115H841.984V124.756C841.984 126.089 842.261 127.094 842.815 127.771C843.368 128.427 844.312 128.755 845.645 128.755C846.301 128.755 847.203 128.632 848.352 128.386V133C846.855 133.41 845.399 133.615 843.984 133.615C841.441 133.615 839.523 132.846 838.231 131.308C836.939 129.77 836.293 127.586 836.293 124.756V104.115H830.233V99.7158H836.293V91.6562H841.984ZM870.785 133.615C866.274 133.615 862.603 132.139 859.773 129.186C856.943 126.212 855.528 122.244 855.528 117.281V116.235C855.528 112.933 856.153 109.99 857.404 107.406C858.675 104.802 860.439 102.771 862.695 101.315C864.971 99.8389 867.432 99.1006 870.078 99.1006C874.405 99.1006 877.768 100.526 880.168 103.376C882.567 106.227 883.767 110.308 883.767 115.62V117.988H861.218C861.3 121.27 862.254 123.925 864.079 125.956C865.925 127.965 868.263 128.97 871.093 128.97C873.103 128.97 874.805 128.56 876.199 127.74C877.594 126.919 878.814 125.833 879.86 124.479L883.336 127.186C880.547 131.472 876.363 133.615 870.785 133.615ZM870.078 103.776C867.781 103.776 865.853 104.617 864.295 106.299C862.736 107.96 861.772 110.298 861.403 113.312H878.076V112.882C877.912 109.99 877.133 107.755 875.738 106.176C874.343 104.576 872.457 103.776 870.078 103.776ZM913.029 133C912.701 132.344 912.435 131.175 912.23 129.493C909.584 132.241 906.426 133.615 902.755 133.615C899.474 133.615 896.777 132.692 894.665 130.847C892.573 128.98 891.527 126.622 891.527 123.771C891.527 120.306 892.839 117.619 895.464 115.712C898.11 113.784 901.822 112.82 906.6 112.82H912.137V110.206C912.137 108.216 911.543 106.637 910.353 105.468C909.164 104.279 907.41 103.684 905.093 103.684C903.063 103.684 901.36 104.197 899.986 105.222C898.612 106.248 897.925 107.488 897.925 108.944H892.204C892.204 107.283 892.788 105.684 893.957 104.146C895.147 102.587 896.746 101.356 898.756 100.454C900.786 99.5518 903.011 99.1006 905.431 99.1006C909.266 99.1006 912.271 100.064 914.444 101.992C916.618 103.899 917.746 106.535 917.828 109.898V125.217C917.828 128.273 918.218 130.703 918.997 132.508V133H913.029ZM903.586 128.663C905.37 128.663 907.062 128.201 908.661 127.278C910.261 126.355 911.42 125.156 912.137 123.679V116.85H907.677C900.704 116.85 897.218 118.891 897.218 122.972C897.218 124.756 897.813 126.15 899.002 127.155C900.191 128.16 901.719 128.663 903.586 128.663ZM942.2 128.97C944.23 128.97 946.004 128.355 947.521 127.125C949.039 125.894 949.88 124.356 950.044 122.51H955.427C955.325 124.417 954.668 126.232 953.458 127.955C952.249 129.678 950.628 131.052 948.598 132.077C946.588 133.103 944.456 133.615 942.2 133.615C937.667 133.615 934.058 132.108 931.372 129.093C928.706 126.058 927.373 121.916 927.373 116.666V115.712C927.373 112.472 927.967 109.59 929.157 107.068C930.346 104.545 932.048 102.587 934.263 101.192C936.499 99.7979 939.134 99.1006 942.169 99.1006C945.901 99.1006 948.998 100.218 951.459 102.454C953.94 104.689 955.263 107.591 955.427 111.159H950.044C949.88 109.006 949.06 107.242 947.583 105.868C946.127 104.474 944.322 103.776 942.169 103.776C939.277 103.776 937.032 104.822 935.432 106.914C933.853 108.985 933.063 111.99 933.063 115.927V117.004C933.063 120.839 933.853 123.792 935.432 125.863C937.011 127.935 939.267 128.97 942.2 128.97ZM969.617 103.746C972.139 100.649 975.42 99.1006 979.46 99.1006C986.495 99.1006 990.042 103.069 990.104 111.005V133H984.413V110.975C984.392 108.575 983.839 106.801 982.752 105.653C981.685 104.504 980.014 103.93 977.738 103.93C975.892 103.93 974.272 104.422 972.877 105.407C971.483 106.391 970.396 107.683 969.617 109.283V133H963.926V85.75H969.617V103.746ZM1007.4 120.388C1007.44 117.947 1007.72 116.02 1008.23 114.604C1008.74 113.189 1009.79 111.621 1011.37 109.898L1015.4 105.745C1017.12 103.797 1017.98 101.705 1017.98 99.4697C1017.98 97.3164 1017.42 95.6348 1016.29 94.4248C1015.16 93.1943 1013.52 92.5791 1011.37 92.5791C1009.28 92.5791 1007.6 93.1328 1006.32 94.2402C1005.05 95.3477 1004.42 96.8345 1004.42 98.7007H998.725C998.766 95.3784 999.946 92.7021 1002.26 90.6719C1004.6 88.6211 1007.64 87.5957 1011.37 87.5957C1015.24 87.5957 1018.26 88.6416 1020.41 90.7334C1022.59 92.8047 1023.67 95.6553 1023.67 99.2852C1023.67 102.874 1022.01 106.412 1018.69 109.898L1015.34 113.22C1013.84 114.881 1013.09 117.271 1013.09 120.388H1007.4ZM1007.15 130.139C1007.15 129.216 1007.43 128.447 1007.98 127.832C1008.56 127.196 1009.4 126.878 1010.51 126.878C1011.61 126.878 1012.46 127.196 1013.03 127.832C1013.6 128.447 1013.89 129.216 1013.89 130.139C1013.89 131.062 1013.6 131.831 1013.03 132.446C1012.46 133.041 1011.61 133.338 1010.51 133.338C1009.4 133.338 1008.56 133.041 1007.98 132.446C1007.43 131.831 1007.15 131.062 1007.15 130.139Z" fill="white"/>
</svg>
