<svg width="1440" height="433" viewBox="0 0 1440 433" fill="none" xmlns="http://www.w3.org/2000/svg">
<path d="M0 0H1440V433H0V0Z" fill="black"/>
<g clip-path="url(#clip0_1_206)">
<path d="M136.371 145.831C133.603 145.831 131.359 143.602 131.359 140.851V120.374C131.359 120.168 131.528 120 131.736 120H135.834C136.131 120 136.371 120.239 136.371 120.534V145.831Z" fill="white"/>
<path fill-rule="evenodd" clip-rule="evenodd" d="M158.183 145.298C158.183 145.593 157.943 145.832 157.646 145.832H153.744C153.448 145.832 153.207 145.593 153.207 145.298V143.933C152.738 144.649 151.981 145.187 150.972 145.581C149.998 145.975 149.097 146.154 148.303 146.154C146.032 146.154 144.049 145.366 142.318 143.754C140.587 142.142 139.722 140.028 139.722 137.448C139.722 134.869 140.587 132.791 142.318 131.178C144.049 129.566 146.032 128.742 148.303 128.742C149.89 128.742 152.053 129.351 153.207 130.963V129.634C153.207 129.339 153.448 129.1 153.744 129.1H157.646C157.943 129.1 158.183 129.339 158.183 129.634V145.298ZM146.176 140.314C147.041 141.067 148.015 141.425 149.133 141.425C151.296 141.425 153.207 139.849 153.207 137.448C153.207 135.048 151.296 133.471 149.133 133.471C148.015 133.471 147.041 133.865 146.176 134.618C145.347 135.37 144.914 136.302 144.914 137.448C144.914 138.595 145.347 139.562 146.176 140.314Z" fill="white"/>
<path d="M169.152 139.49C170.342 139.812 170.811 140.207 170.811 140.923C170.811 141.747 169.909 142.285 168.755 142.32C167.648 142.32 166.69 141.679 166.375 140.887C166.269 140.62 166.038 140.386 165.749 140.386H162.128C161.827 140.386 161.582 140.632 161.613 140.93C161.768 142.439 162.449 143.684 163.707 144.613C165.114 145.652 166.772 146.154 168.611 146.154C170.558 146.154 172.253 145.688 173.695 144.792C175.174 143.897 175.895 142.607 175.895 140.923C175.895 139.92 175.751 138.988 174.272 137.591C173.551 136.91 172.578 136.373 171.316 136.051L168.467 135.298C167.529 135.047 167.025 134.653 166.989 134.044C166.953 133.292 167.638 132.79 168.755 132.79C169.775 132.79 170.371 133.118 170.581 133.753C170.672 134.026 170.895 134.259 171.184 134.259H174.843C175.143 134.259 175.388 134.014 175.361 133.716C175.214 132.092 174.538 130.875 173.335 130.067C172.001 129.172 170.378 128.706 168.467 128.706C166.7 128.706 165.186 129.208 163.888 130.175C162.59 131.142 161.941 132.217 161.904 133.471C161.868 134.51 161.941 135.083 162.481 136.23C163.058 137.34 164.609 138.308 166.953 138.917L169.152 139.49Z" fill="white"/>
<path d="M187.178 140.923C187.178 140.207 186.709 139.812 185.519 139.49L183.32 138.917C180.976 138.308 179.426 137.34 178.849 136.23C178.308 135.083 178.236 134.51 178.272 133.471C178.308 132.217 178.957 131.142 180.255 130.175C181.553 129.208 183.067 128.706 184.834 128.706C186.745 128.706 188.368 129.172 189.702 130.067C190.906 130.875 191.581 132.092 191.728 133.716C191.755 134.014 191.511 134.259 191.21 134.259H187.551C187.263 134.259 187.039 134.026 186.949 133.753C186.738 133.118 186.142 132.79 185.123 132.79C184.005 132.79 183.32 133.292 183.356 134.044C183.392 134.653 183.897 135.047 184.834 135.298L187.683 136.051C188.945 136.373 189.918 136.91 190.64 137.591C192.118 138.988 192.262 139.92 192.262 140.923C192.262 142.607 191.541 143.897 190.063 144.792C188.62 145.688 186.926 146.154 184.978 146.154C183.14 146.154 181.481 145.652 180.075 144.613C178.817 143.684 178.136 142.439 177.98 140.93C177.95 140.632 178.195 140.386 178.496 140.386H182.116C182.406 140.386 182.637 140.62 182.743 140.887C183.057 141.679 184.015 142.32 185.123 142.32C186.277 142.285 187.178 141.747 187.178 140.923Z" fill="white"/>
<path d="M203.597 128.742C201.109 128.742 198.946 129.566 197.143 131.178C195.34 132.791 194.438 134.869 194.438 137.412C194.438 139.956 195.34 142.07 197.143 143.718C198.946 145.366 201.109 146.19 203.597 146.19C206.431 146.19 208.981 145.03 210.596 143.032C210.782 142.803 210.722 142.47 210.481 142.301L207.3 140.063C207.05 139.888 206.707 139.958 206.508 140.188C205.801 141.005 204.831 141.425 203.597 141.425C202.479 141.425 201.506 141.067 200.676 140.314C199.847 139.562 199.414 138.595 199.414 137.412C199.414 136.266 199.847 135.334 200.676 134.618C201.506 133.865 202.479 133.507 203.597 133.507C204.83 133.507 205.799 133.926 206.505 134.742C206.706 134.973 207.051 135.042 207.301 134.864L210.481 132.6C210.722 132.428 210.779 132.094 210.591 131.866C208.945 129.872 206.397 128.742 203.597 128.742Z" fill="white"/>
<path fill-rule="evenodd" clip-rule="evenodd" d="M231.345 145.262C231.345 145.557 231.104 145.796 230.807 145.796H226.906C226.609 145.796 226.369 145.557 226.369 145.262V143.897C225.9 144.613 225.143 145.151 224.133 145.545C223.16 145.939 222.258 146.118 221.465 146.118C219.193 146.118 217.21 145.33 215.479 143.718C213.749 142.105 212.883 139.992 212.883 137.412C212.883 134.833 213.749 132.755 215.479 131.142C217.21 129.53 219.193 128.706 221.465 128.706C223.051 128.706 225.215 129.315 226.369 130.927V129.598C226.369 129.303 226.609 129.064 226.906 129.064H230.807C231.104 129.064 231.345 129.303 231.345 129.598V145.262ZM219.337 140.278C220.203 141.031 221.176 141.389 222.294 141.389C224.458 141.389 226.369 139.812 226.369 137.412C226.369 135.012 224.458 133.435 222.294 133.435C221.176 133.435 220.203 133.829 219.337 134.582C218.508 135.334 218.075 136.266 218.075 137.412C218.075 138.559 218.508 139.526 219.337 140.278Z" fill="white"/>
<path d="M253.442 133.579C255.029 133.579 256.219 134.797 256.219 136.911V145.298C256.219 145.593 256.459 145.832 256.756 145.832H260.657C260.954 145.832 261.195 145.593 261.195 145.298V136.338C261.195 131.358 258.779 128.742 254.704 128.742C252.577 128.742 250.882 129.745 249.656 131.716C248.719 129.745 246.916 128.778 244.248 128.778C242.373 128.778 240.606 129.817 239.848 131.537V129.634C239.848 129.339 239.608 129.1 239.311 129.1H235.374C235.077 129.1 234.836 129.339 234.836 129.634V145.298C234.836 145.593 235.077 145.832 235.374 145.832H239.311C239.608 145.832 239.848 145.593 239.848 145.298V136.982C239.848 134.582 241.074 133.579 242.769 133.579C244.32 133.579 245.51 134.797 245.546 136.803V145.298C245.546 145.593 245.786 145.832 246.083 145.832H250.02C250.317 145.832 250.558 145.593 250.558 145.298V136.982C250.558 134.689 251.711 133.579 253.442 133.579Z" fill="white"/>
<path fill-rule="evenodd" clip-rule="evenodd" d="M269.426 154C266.713 154 264.514 151.815 264.514 149.119V129.384C264.514 129.207 264.658 129.064 264.836 129.064H268.953C269.249 129.064 269.49 129.303 269.49 129.598V131.142C270.319 129.602 272.266 128.706 274.43 128.706C276.665 128.706 278.577 129.53 280.163 131.142C281.786 132.755 282.579 134.833 282.579 137.376C282.579 139.992 281.786 142.105 280.163 143.718C278.577 145.33 276.665 146.154 274.43 146.154C272.266 146.154 270.319 145.222 269.49 143.753V153.937C269.49 153.972 269.461 154 269.426 154ZM273.492 133.435C271.329 133.435 269.598 135.155 269.598 137.484C269.598 139.92 271.329 141.461 273.492 141.461C275.656 141.461 277.387 139.812 277.387 137.484C277.387 135.083 275.656 133.435 273.492 133.435Z" fill="white"/>
<path d="M124.497 138.37C124.682 138.137 125.017 138.074 125.262 138.243L128.399 140.409C128.638 140.574 128.702 140.899 128.531 141.133C126.421 144.023 122.959 145.805 118.971 145.805C115.64 145.805 112.853 144.657 110.576 142.327C108.332 139.996 107.21 137.193 107.21 133.883C107.21 130.54 108.332 127.737 110.576 125.406C112.853 123.076 115.64 121.928 118.971 121.928C122.851 121.928 126.301 123.67 128.413 126.427C128.592 126.661 128.529 126.994 128.285 127.161L125.126 129.324C124.881 129.492 124.546 129.428 124.364 129.195C123.003 127.457 121.206 126.588 118.971 126.588C117.034 126.588 115.436 127.298 114.145 128.716C112.853 130.101 112.207 131.823 112.207 133.883C112.207 135.91 112.853 137.632 114.145 139.051C115.436 140.436 117.034 141.145 118.971 141.145C121.199 141.145 123.165 140.052 124.497 138.37Z" fill="white"/>
<path d="M97.1912 126L95.8998 128.236C96.6599 128.676 97.322 128.927 98.2632 128.927V131.512C96.8505 131.512 95.7464 131.134 94.6057 130.474L95.8971 128.238C93.616 126.918 90.9677 126.163 88.1429 126.163C85.3176 126.163 82.6687 126.918 80.3873 128.238L79.0947 126C81.7563 124.46 84.8467 123.578 88.1429 123.578C91.4392 123.578 94.5296 124.46 97.1912 126Z" fill="white"/>
<path d="M94.606 130.478C92.7048 129.378 90.4974 128.748 88.1429 128.748C85.7885 128.748 83.5811 129.378 81.6799 130.478L82.9725 132.717C84.4934 131.837 86.2594 131.333 88.1429 131.333C90.0259 131.333 91.7913 131.836 93.3119 132.716L92.0205 134.953C93.9217 136.053 95.9087 136.682 98.2632 136.682V134.097C96.3802 134.097 94.8352 133.594 93.3146 132.714L94.606 130.478Z" fill="white"/>
<path d="M88.1429 133.918C89.5556 133.918 90.8801 134.296 92.0208 134.956L90.7293 137.193C93.0104 138.512 95.4384 139.267 98.2632 139.267V141.852C94.9669 141.852 92.0969 140.971 89.4353 139.431L90.7267 137.194C89.9665 136.754 89.0841 136.503 88.1429 136.503C87.2012 136.503 86.3182 136.755 85.5577 137.195L84.2651 134.956C85.4058 134.296 86.7303 133.918 88.1429 133.918Z" fill="white"/>
<path d="M83.5227 143.999H83.5251C83.531 144.01 83.5369 144.022 83.5428 144.034L83.7934 144.468C84.7132 145.896 86.3176 146.842 88.1429 146.842H88.149L76.9542 127.452C76.26 127.999 75.6068 128.596 75 129.237L83.5227 143.999Z" fill="white"/>
</g>
<path d="M1270 126C1266.2 126 1265.72 126.017 1264.23 126.085C1262.74 126.153 1261.72 126.389 1260.83 126.735C1259.91 127.093 1259.13 127.571 1258.35 128.349C1257.57 129.128 1257.09 129.909 1256.73 130.829C1256.39 131.72 1256.15 132.737 1256.08 134.227C1256.02 135.72 1256 136.198 1256 140C1256 143.802 1256.02 144.278 1256.08 145.771C1256.15 147.262 1256.39 148.279 1256.74 149.169C1257.09 150.09 1257.57 150.871 1258.35 151.649C1259.13 152.428 1259.91 152.907 1260.83 153.265C1261.72 153.611 1262.74 153.847 1264.23 153.915C1265.72 153.983 1266.2 154 1270 154C1273.8 154 1274.28 153.983 1275.77 153.915C1277.26 153.847 1278.28 153.611 1279.17 153.265C1280.09 152.907 1280.87 152.428 1281.65 151.649C1282.43 150.871 1282.91 150.09 1283.26 149.169C1283.61 148.279 1283.85 147.261 1283.92 145.771C1283.98 144.278 1284 143.802 1284 140C1284 136.198 1283.98 135.721 1283.92 134.227C1283.85 132.737 1283.61 131.72 1283.26 130.829C1282.91 129.909 1282.43 129.128 1281.65 128.349C1280.87 127.571 1280.09 127.092 1279.17 126.735C1278.28 126.389 1277.26 126.153 1275.77 126.085C1274.28 126.017 1273.8 126 1270 126H1270ZM1268.75 128.523C1269.12 128.522 1269.53 128.523 1270 128.523C1273.74 128.523 1274.18 128.536 1275.66 128.603C1277.02 128.666 1277.76 128.894 1278.26 129.086C1278.91 129.339 1279.38 129.643 1279.87 130.133C1280.36 130.623 1280.66 131.089 1280.91 131.743C1281.11 132.236 1281.33 132.976 1281.4 134.341C1281.46 135.817 1281.48 136.26 1281.48 139.997C1281.48 143.733 1281.46 144.176 1281.4 145.652C1281.33 147.017 1281.11 147.758 1280.91 148.251C1280.66 148.904 1280.36 149.369 1279.87 149.859C1279.38 150.349 1278.91 150.653 1278.26 150.906C1277.76 151.099 1277.02 151.326 1275.66 151.389C1274.18 151.456 1273.74 151.47 1270 151.47C1266.26 151.47 1265.82 151.456 1264.34 151.389C1262.98 151.326 1262.24 151.098 1261.74 150.906C1261.09 150.652 1260.62 150.349 1260.13 149.859C1259.64 149.369 1259.34 148.903 1259.09 148.25C1258.9 147.757 1258.67 147.016 1258.6 145.651C1258.54 144.175 1258.52 143.732 1258.52 139.993C1258.52 136.255 1258.54 135.814 1258.6 134.338C1258.67 132.973 1258.9 132.232 1259.09 131.738C1259.34 131.085 1259.64 130.618 1260.13 130.128C1260.62 129.639 1261.09 129.335 1261.74 129.081C1262.24 128.888 1262.98 128.661 1264.34 128.598C1265.64 128.54 1266.14 128.522 1268.75 128.519V128.523ZM1277.47 130.847C1276.55 130.847 1275.79 131.599 1275.79 132.527C1275.79 133.454 1276.55 134.207 1277.47 134.207C1278.4 134.207 1279.15 133.454 1279.15 132.527C1279.15 131.599 1278.4 130.847 1277.47 130.847V130.847ZM1270 132.81C1266.03 132.81 1262.81 136.03 1262.81 140C1262.81 143.971 1266.03 147.188 1270 147.188C1273.97 147.188 1277.19 143.971 1277.19 140C1277.19 136.03 1273.97 132.81 1270 132.81H1270ZM1270 135.333C1272.58 135.333 1274.67 137.422 1274.67 140C1274.67 142.577 1272.58 144.667 1270 144.667C1267.42 144.667 1265.33 142.577 1265.33 140C1265.33 137.422 1267.42 135.333 1270 135.333Z" fill="white"/>
<path fill-rule="evenodd" clip-rule="evenodd" d="M1239.26 130.729C1239.75 131.23 1240.11 131.853 1240.29 132.537C1241.35 136.825 1241.11 143.597 1240.31 148.051C1240.13 148.735 1239.77 149.358 1239.28 149.859C1238.78 150.36 1238.16 150.721 1237.48 150.906C1235 151.588 1225 151.588 1225 151.588C1225 151.588 1215.01 151.588 1212.53 150.906C1211.85 150.721 1211.23 150.36 1210.73 149.859C1210.24 149.358 1209.88 148.735 1209.69 148.051C1208.63 143.782 1208.92 137.005 1209.67 132.558C1209.86 131.874 1210.22 131.251 1210.71 130.75C1211.21 130.249 1211.83 129.888 1212.51 129.703C1214.99 129.021 1224.98 129 1224.98 129C1224.98 129 1234.98 129 1237.46 129.683C1238.14 129.868 1238.76 130.228 1239.26 130.729ZM1229.76 140.294L1222.24 145V135.588L1229.76 140.294Z" fill="white"/>
<path d="M1309.81 151.756C1320.37 151.756 1326.15 143.002 1326.15 135.411C1326.15 135.162 1326.15 134.915 1326.13 134.668C1327.26 133.858 1328.23 132.846 1329 131.694C1327.97 132.151 1326.86 132.459 1325.7 132.598C1326.89 131.887 1327.8 130.762 1328.23 129.421C1327.12 130.079 1325.89 130.557 1324.58 130.815C1323.53 129.698 1322.04 129 1320.39 129C1317.21 129 1314.64 131.573 1314.64 134.744C1314.64 135.195 1314.69 135.633 1314.79 136.054C1310.02 135.814 1305.78 133.528 1302.95 130.052C1302.46 130.901 1302.17 131.887 1302.17 132.939C1302.17 134.932 1303.18 136.692 1304.73 137.721C1303.78 137.692 1302.9 137.433 1302.13 137.003C1302.12 137.027 1302.12 137.05 1302.12 137.076C1302.12 139.858 1304.1 142.181 1306.73 142.707C1306.25 142.839 1305.74 142.909 1305.22 142.909C1304.85 142.909 1304.49 142.873 1304.14 142.806C1304.87 145.088 1306.99 146.749 1309.51 146.796C1307.54 148.337 1305.06 149.255 1302.37 149.255C1301.91 149.255 1301.45 149.229 1301 149.175C1303.54 150.805 1306.56 151.756 1309.81 151.756" fill="white"/>
<path d="M530.173 127.99V133H528.485V120.203H533.205C534.605 120.203 535.701 120.561 536.492 121.275C537.289 121.99 537.688 122.937 537.688 124.114C537.688 125.356 537.298 126.314 536.519 126.988C535.745 127.656 534.635 127.99 533.188 127.99H530.173ZM530.173 126.61H533.205C534.107 126.61 534.799 126.399 535.279 125.978C535.76 125.55 536 124.935 536 124.132C536 123.37 535.76 122.761 535.279 122.304C534.799 121.847 534.14 121.609 533.302 121.592H530.173V126.61ZM544.714 127.823H541.708V133H540.012V120.203H544.248C545.69 120.203 546.797 120.531 547.571 121.188C548.35 121.844 548.74 122.799 548.74 124.053C548.74 124.85 548.523 125.544 548.089 126.136C547.661 126.728 547.064 127.17 546.296 127.463L549.302 132.895V133H547.492L544.714 127.823ZM541.708 126.443H544.301C545.139 126.443 545.804 126.227 546.296 125.793C546.794 125.359 547.043 124.779 547.043 124.053C547.043 123.262 546.806 122.655 546.331 122.233C545.863 121.812 545.183 121.598 544.292 121.592H541.708V126.443ZM561.136 127.015C561.136 128.269 560.925 129.364 560.504 130.302C560.082 131.233 559.484 131.945 558.711 132.438C557.937 132.93 557.035 133.176 556.004 133.176C554.996 133.176 554.102 132.93 553.323 132.438C552.544 131.939 551.937 131.233 551.504 130.319C551.076 129.399 550.856 128.336 550.844 127.129V126.206C550.844 124.976 551.058 123.889 551.486 122.945C551.914 122.002 552.517 121.281 553.297 120.783C554.082 120.279 554.978 120.027 555.986 120.027C557.011 120.027 557.914 120.276 558.693 120.774C559.478 121.267 560.082 121.984 560.504 122.928C560.925 123.865 561.136 124.958 561.136 126.206V127.015ZM559.458 126.188C559.458 124.671 559.153 123.508 558.544 122.699C557.934 121.885 557.082 121.478 555.986 121.478C554.92 121.478 554.079 121.885 553.464 122.699C552.854 123.508 552.541 124.633 552.523 126.074V127.015C552.523 128.485 552.831 129.643 553.446 130.486C554.067 131.324 554.92 131.743 556.004 131.743C557.093 131.743 557.937 131.348 558.535 130.557C559.132 129.76 559.44 128.62 559.458 127.138V126.188ZM563.848 133V120.203H567.46C568.573 120.203 569.558 120.449 570.413 120.941C571.269 121.434 571.928 122.134 572.391 123.042C572.859 123.95 573.097 124.993 573.103 126.171V126.988C573.103 128.195 572.868 129.253 572.399 130.161C571.936 131.069 571.271 131.767 570.404 132.253C569.543 132.739 568.538 132.988 567.39 133H563.848ZM565.535 121.592V131.62H567.311C568.611 131.62 569.622 131.216 570.343 130.407C571.069 129.599 571.433 128.447 571.433 126.953V126.206C571.433 124.753 571.09 123.625 570.404 122.822C569.725 122.014 568.758 121.604 567.504 121.592H565.535ZM584.849 120.203V128.904C584.843 130.111 584.462 131.099 583.706 131.866C582.956 132.634 581.937 133.064 580.648 133.158L580.199 133.176C578.799 133.176 577.683 132.798 576.851 132.042C576.019 131.286 575.597 130.246 575.585 128.922V120.203H577.255V128.869C577.255 129.795 577.51 130.516 578.02 131.031C578.53 131.541 579.256 131.796 580.199 131.796C581.155 131.796 581.884 131.541 582.388 131.031C582.898 130.521 583.153 129.804 583.153 128.878V120.203H584.849ZM597.105 128.939C596.947 130.293 596.446 131.339 595.602 132.077C594.764 132.81 593.648 133.176 592.254 133.176C590.742 133.176 589.529 132.634 588.615 131.55C587.707 130.466 587.253 129.016 587.253 127.199V125.969C587.253 124.779 587.463 123.733 587.885 122.831C588.313 121.929 588.917 121.237 589.696 120.757C590.475 120.271 591.378 120.027 592.403 120.027C593.762 120.027 594.852 120.408 595.672 121.17C596.493 121.926 596.97 122.975 597.105 124.316H595.409C595.262 123.297 594.943 122.559 594.451 122.102C593.964 121.645 593.282 121.416 592.403 121.416C591.325 121.416 590.478 121.814 589.863 122.611C589.254 123.408 588.949 124.542 588.949 126.013V127.252C588.949 128.641 589.239 129.745 589.819 130.565C590.399 131.386 591.211 131.796 592.254 131.796C593.191 131.796 593.909 131.585 594.407 131.163C594.911 130.735 595.245 129.994 595.409 128.939H597.105ZM608.175 121.592H604.061V133H602.383V121.592H598.278V120.203H608.175V121.592Z" fill="white"/>
<path d="M534.119 233.291H529.644V238H528.238V227.336H534.844V228.493H529.644V232.141H534.119V233.291ZM537.949 238H536.594V230.075H537.949V238ZM536.484 227.973C536.484 227.753 536.55 227.568 536.681 227.417C536.818 227.265 537.018 227.189 537.282 227.189C537.546 227.189 537.746 227.265 537.883 227.417C538.019 227.568 538.088 227.753 538.088 227.973C538.088 228.193 538.019 228.376 537.883 228.522C537.746 228.669 537.546 228.742 537.282 228.742C537.018 228.742 536.818 228.669 536.681 228.522C536.55 228.376 536.484 228.193 536.484 227.973ZM541.566 230.075L541.61 231.071C542.215 230.31 543.006 229.929 543.983 229.929C545.657 229.929 546.502 230.874 546.517 232.763V238H545.162V232.756C545.157 232.185 545.025 231.762 544.766 231.489C544.512 231.215 544.114 231.079 543.572 231.079C543.133 231.079 542.747 231.196 542.415 231.43C542.083 231.665 541.824 231.972 541.639 232.353V238H540.284V230.075H541.566ZM548.391 233.972C548.391 232.756 548.679 231.779 549.255 231.042C549.831 230.3 550.585 229.929 551.518 229.929C552.446 229.929 553.181 230.246 553.723 230.881V226.75H555.078V238H553.833L553.767 237.15C553.225 237.814 552.47 238.146 551.503 238.146C550.585 238.146 549.836 237.771 549.255 237.019C548.679 236.267 548.391 235.285 548.391 234.074V233.972ZM549.746 234.125C549.746 235.024 549.931 235.727 550.302 236.235C550.673 236.743 551.186 236.997 551.84 236.997C552.7 236.997 553.327 236.611 553.723 235.839V232.199C553.317 231.452 552.695 231.079 551.855 231.079C551.191 231.079 550.673 231.335 550.302 231.848C549.931 232.36 549.746 233.12 549.746 234.125ZM566.12 238C566.042 237.844 565.979 237.565 565.93 237.165C565.3 237.819 564.548 238.146 563.674 238.146C562.893 238.146 562.251 237.927 561.748 237.487C561.25 237.043 561.001 236.481 561.001 235.803C561.001 234.978 561.313 234.338 561.938 233.884C562.568 233.425 563.452 233.195 564.59 233.195H565.908V232.573C565.908 232.099 565.766 231.723 565.483 231.445C565.2 231.162 564.782 231.02 564.231 231.02C563.747 231.02 563.342 231.142 563.015 231.386C562.688 231.63 562.524 231.926 562.524 232.272H561.162C561.162 231.877 561.301 231.496 561.579 231.13C561.862 230.759 562.243 230.466 562.722 230.251C563.205 230.036 563.735 229.929 564.311 229.929C565.224 229.929 565.94 230.158 566.457 230.617C566.975 231.071 567.243 231.699 567.263 232.5V236.147C567.263 236.875 567.356 237.453 567.541 237.883V238H566.12ZM563.872 236.967C564.297 236.967 564.699 236.857 565.08 236.638C565.461 236.418 565.737 236.132 565.908 235.781V234.155H564.846C563.186 234.155 562.356 234.641 562.356 235.612C562.356 236.037 562.497 236.369 562.78 236.608C563.064 236.848 563.427 236.967 563.872 236.967ZM576.606 237.041C577.09 237.041 577.512 236.894 577.873 236.601C578.235 236.308 578.435 235.942 578.474 235.502H579.756C579.731 235.957 579.575 236.389 579.287 236.799C578.999 237.209 578.613 237.536 578.13 237.78C577.651 238.024 577.143 238.146 576.606 238.146C575.527 238.146 574.668 237.788 574.028 237.07C573.393 236.347 573.076 235.361 573.076 234.111V233.884C573.076 233.112 573.218 232.426 573.501 231.826C573.784 231.225 574.189 230.759 574.717 230.427C575.249 230.095 575.876 229.929 576.599 229.929C577.488 229.929 578.225 230.195 578.811 230.727C579.402 231.259 579.717 231.95 579.756 232.8H578.474C578.435 232.287 578.24 231.867 577.888 231.54C577.541 231.208 577.112 231.042 576.599 231.042C575.911 231.042 575.376 231.291 574.995 231.789C574.619 232.282 574.431 232.998 574.431 233.935V234.191C574.431 235.104 574.619 235.808 574.995 236.301C575.371 236.794 575.908 237.041 576.606 237.041ZM581.08 233.964C581.08 233.188 581.232 232.49 581.534 231.87C581.842 231.25 582.267 230.771 582.809 230.434C583.356 230.097 583.978 229.929 584.676 229.929C585.756 229.929 586.627 230.302 587.291 231.049C587.96 231.796 588.295 232.79 588.295 234.03V234.125C588.295 234.897 588.146 235.59 587.848 236.206C587.555 236.816 587.133 237.292 586.581 237.634C586.034 237.976 585.404 238.146 584.691 238.146C583.617 238.146 582.745 237.773 582.076 237.026C581.412 236.279 581.08 235.29 581.08 234.06V233.964ZM582.443 234.125C582.443 235.004 582.645 235.71 583.051 236.242C583.461 236.774 584.008 237.041 584.691 237.041C585.38 237.041 585.926 236.772 586.332 236.235C586.737 235.693 586.94 234.936 586.94 233.964C586.94 233.095 586.732 232.392 586.317 231.855C585.907 231.313 585.36 231.042 584.676 231.042C584.008 231.042 583.468 231.308 583.058 231.84C582.648 232.373 582.443 233.134 582.443 234.125ZM595.046 237.216C594.519 237.836 593.745 238.146 592.725 238.146C591.88 238.146 591.235 237.902 590.791 237.414C590.352 236.921 590.129 236.193 590.125 235.231V230.075H591.48V235.195C591.48 236.396 591.968 236.997 592.944 236.997C593.98 236.997 594.668 236.611 595.01 235.839V230.075H596.365V238H595.076L595.046 237.216ZM602.421 231.291C602.216 231.257 601.994 231.24 601.754 231.24C600.866 231.24 600.263 231.618 599.945 232.375V238H598.59V230.075H599.909L599.931 230.991C600.375 230.283 601.005 229.929 601.82 229.929C602.084 229.929 602.284 229.963 602.421 230.031V231.291ZM608.448 235.898C608.448 235.532 608.308 235.249 608.03 235.048C607.757 234.843 607.276 234.667 606.587 234.521C605.904 234.375 605.359 234.199 604.954 233.994C604.553 233.789 604.256 233.544 604.06 233.261C603.87 232.978 603.775 232.641 603.775 232.25C603.775 231.601 604.048 231.052 604.595 230.603C605.147 230.153 605.85 229.929 606.704 229.929C607.603 229.929 608.33 230.161 608.887 230.625C609.448 231.088 609.729 231.682 609.729 232.404H608.367C608.367 232.033 608.208 231.713 607.891 231.445C607.578 231.176 607.183 231.042 606.704 231.042C606.211 231.042 605.825 231.149 605.547 231.364C605.269 231.579 605.13 231.86 605.13 232.207C605.13 232.534 605.259 232.78 605.518 232.946C605.777 233.112 606.243 233.271 606.917 233.422C607.595 233.574 608.145 233.754 608.565 233.964C608.985 234.174 609.295 234.428 609.495 234.726C609.7 235.019 609.802 235.378 609.802 235.803C609.802 236.511 609.519 237.08 608.953 237.509C608.386 237.934 607.652 238.146 606.748 238.146C606.114 238.146 605.552 238.034 605.064 237.81C604.575 237.585 604.192 237.272 603.914 236.872C603.64 236.467 603.504 236.03 603.504 235.561H604.859C604.883 236.015 605.064 236.376 605.401 236.645C605.742 236.909 606.192 237.041 606.748 237.041C607.261 237.041 607.671 236.938 607.979 236.733C608.291 236.523 608.448 236.245 608.448 235.898ZM615.016 238.146C613.942 238.146 613.068 237.795 612.394 237.092C611.72 236.384 611.383 235.439 611.383 234.257V234.008C611.383 233.222 611.532 232.521 611.83 231.906C612.133 231.286 612.553 230.803 613.09 230.456C613.632 230.104 614.218 229.929 614.848 229.929C615.878 229.929 616.679 230.268 617.25 230.947C617.821 231.625 618.107 232.597 618.107 233.862V234.426H612.738C612.758 235.207 612.985 235.839 613.42 236.323C613.859 236.801 614.416 237.041 615.089 237.041C615.568 237.041 615.973 236.943 616.305 236.748C616.637 236.552 616.928 236.293 617.177 235.971L618.004 236.616C617.34 237.636 616.344 238.146 615.016 238.146ZM614.848 231.042C614.301 231.042 613.842 231.242 613.471 231.643C613.1 232.038 612.87 232.595 612.782 233.312H616.752V233.21C616.713 232.521 616.527 231.989 616.195 231.613C615.863 231.232 615.414 231.042 614.848 231.042Z" fill="white"/>
<path d="M529.644 297.825V302H528.238V291.336H532.171C533.338 291.336 534.251 291.634 534.91 292.229C535.574 292.825 535.906 293.614 535.906 294.595C535.906 295.63 535.582 296.429 534.932 296.99C534.288 297.547 533.362 297.825 532.156 297.825H529.644ZM529.644 296.675H532.171C532.923 296.675 533.499 296.5 533.899 296.148C534.3 295.792 534.5 295.279 534.5 294.61C534.5 293.975 534.3 293.467 533.899 293.086C533.499 292.706 532.95 292.508 532.251 292.493H529.644V296.675ZM541.479 295.291C541.274 295.257 541.052 295.24 540.812 295.24C539.924 295.24 539.321 295.618 539.003 296.375V302H537.648V294.075H538.967L538.989 294.991C539.433 294.283 540.063 293.929 540.878 293.929C541.142 293.929 541.342 293.963 541.479 294.031V295.291ZM544.363 302H543.008V294.075H544.363V302ZM542.899 291.973C542.899 291.753 542.965 291.568 543.096 291.417C543.233 291.265 543.433 291.189 543.697 291.189C543.961 291.189 544.161 291.265 544.298 291.417C544.434 291.568 544.503 291.753 544.503 291.973C544.503 292.193 544.434 292.376 544.298 292.522C544.161 292.669 543.961 292.742 543.697 292.742C543.433 292.742 543.233 292.669 543.096 292.522C542.965 292.376 542.899 292.193 542.899 291.973ZM549.877 301.041C550.361 301.041 550.783 300.894 551.145 300.601C551.506 300.308 551.706 299.942 551.745 299.502H553.027C553.002 299.957 552.846 300.389 552.558 300.799C552.27 301.209 551.884 301.536 551.401 301.78C550.922 302.024 550.415 302.146 549.877 302.146C548.798 302.146 547.939 301.788 547.299 301.07C546.665 300.347 546.347 299.361 546.347 298.111V297.884C546.347 297.112 546.489 296.426 546.772 295.826C547.055 295.225 547.46 294.759 547.988 294.427C548.52 294.095 549.147 293.929 549.87 293.929C550.759 293.929 551.496 294.195 552.082 294.727C552.673 295.259 552.988 295.95 553.027 296.8H551.745C551.706 296.287 551.511 295.867 551.159 295.54C550.813 295.208 550.383 295.042 549.87 295.042C549.182 295.042 548.647 295.291 548.266 295.789C547.89 296.282 547.702 296.998 547.702 297.935V298.191C547.702 299.104 547.89 299.808 548.266 300.301C548.642 300.794 549.179 301.041 549.877 301.041ZM556.182 302H554.827V294.075H556.182V302ZM554.718 291.973C554.718 291.753 554.784 291.568 554.915 291.417C555.052 291.265 555.252 291.189 555.516 291.189C555.78 291.189 555.98 291.265 556.117 291.417C556.253 291.568 556.322 291.753 556.322 291.973C556.322 292.193 556.253 292.376 556.117 292.522C555.98 292.669 555.78 292.742 555.516 292.742C555.252 292.742 555.052 292.669 554.915 292.522C554.784 292.376 554.718 292.193 554.718 291.973ZM559.8 294.075L559.843 295.071C560.449 294.31 561.24 293.929 562.217 293.929C563.891 293.929 564.736 294.874 564.751 296.763V302H563.396V296.756C563.391 296.185 563.259 295.762 563 295.489C562.746 295.215 562.348 295.079 561.806 295.079C561.367 295.079 560.981 295.196 560.649 295.43C560.317 295.665 560.058 295.972 559.873 296.353V302H558.518V294.075H559.8ZM566.632 297.972C566.632 296.736 566.918 295.755 567.489 295.027C568.06 294.295 568.817 293.929 569.759 293.929C570.726 293.929 571.481 294.271 572.022 294.954L572.088 294.075H573.326V301.81C573.326 302.835 573.021 303.643 572.411 304.234C571.805 304.825 570.99 305.12 569.964 305.12C569.393 305.12 568.834 304.998 568.287 304.754C567.74 304.51 567.323 304.175 567.035 303.75L567.738 302.938C568.319 303.655 569.029 304.014 569.869 304.014C570.528 304.014 571.041 303.829 571.407 303.458C571.778 303.086 571.964 302.564 571.964 301.89V301.209C571.422 301.834 570.682 302.146 569.745 302.146C568.817 302.146 568.065 301.773 567.489 301.026C566.918 300.279 566.632 299.261 566.632 297.972ZM567.994 298.125C567.994 299.019 568.177 299.722 568.543 300.235C568.91 300.743 569.422 300.997 570.082 300.997C570.936 300.997 571.564 300.608 571.964 299.832V296.214C571.549 295.457 570.926 295.079 570.096 295.079C569.437 295.079 568.922 295.335 568.551 295.848C568.18 296.36 567.994 297.12 567.994 298.125Z" fill="white"/>
<path d="M534.119 265.291H529.644V270H528.238V259.336H534.844V260.493H529.644V264.141H534.119V265.291ZM539.604 270.146C538.53 270.146 537.656 269.795 536.982 269.092C536.308 268.384 535.971 267.439 535.971 266.257V266.008C535.971 265.222 536.12 264.521 536.418 263.906C536.721 263.286 537.14 262.803 537.678 262.456C538.22 262.104 538.806 261.929 539.435 261.929C540.466 261.929 541.266 262.268 541.838 262.947C542.409 263.625 542.695 264.597 542.695 265.862V266.426H537.326C537.346 267.207 537.573 267.839 538.007 268.323C538.447 268.801 539.003 269.041 539.677 269.041C540.156 269.041 540.561 268.943 540.893 268.748C541.225 268.552 541.515 268.293 541.764 267.971L542.592 268.616C541.928 269.636 540.932 270.146 539.604 270.146ZM539.435 263.042C538.889 263.042 538.43 263.242 538.058 263.643C537.687 264.038 537.458 264.595 537.37 265.312H541.34V265.21C541.301 264.521 541.115 263.989 540.783 263.613C540.451 263.232 540.002 263.042 539.435 263.042ZM549.322 270C549.244 269.844 549.18 269.565 549.132 269.165C548.502 269.819 547.75 270.146 546.876 270.146C546.094 270.146 545.452 269.927 544.949 269.487C544.451 269.043 544.202 268.481 544.202 267.803C544.202 266.978 544.515 266.338 545.14 265.884C545.77 265.425 546.653 265.195 547.791 265.195H549.11V264.573C549.11 264.099 548.968 263.723 548.685 263.445C548.402 263.162 547.984 263.02 547.432 263.02C546.949 263.02 546.544 263.142 546.216 263.386C545.889 263.63 545.726 263.926 545.726 264.272H544.363C544.363 263.877 544.503 263.496 544.781 263.13C545.064 262.759 545.445 262.466 545.924 262.251C546.407 262.036 546.937 261.929 547.513 261.929C548.426 261.929 549.141 262.158 549.659 262.617C550.176 263.071 550.445 263.699 550.465 264.5V268.147C550.465 268.875 550.557 269.453 550.743 269.883V270H549.322ZM547.073 268.967C547.498 268.967 547.901 268.857 548.282 268.638C548.663 268.418 548.939 268.132 549.11 267.781V266.155H548.048C546.387 266.155 545.557 266.641 545.557 267.612C545.557 268.037 545.699 268.369 545.982 268.608C546.265 268.848 546.629 268.967 547.073 268.967ZM554.587 260.156V262.075H556.066V263.123H554.587V268.037C554.587 268.354 554.653 268.594 554.785 268.755C554.917 268.911 555.141 268.989 555.459 268.989C555.615 268.989 555.83 268.96 556.103 268.901V270C555.747 270.098 555.4 270.146 555.063 270.146C554.458 270.146 554.001 269.963 553.693 269.597C553.386 269.231 553.232 268.711 553.232 268.037V263.123H551.789V262.075H553.232V260.156H554.587ZM562.708 269.216C562.181 269.836 561.407 270.146 560.387 270.146C559.542 270.146 558.897 269.902 558.453 269.414C558.014 268.921 557.791 268.193 557.786 267.231V262.075H559.141V267.195C559.141 268.396 559.63 268.997 560.606 268.997C561.641 268.997 562.33 268.611 562.672 267.839V262.075H564.027V270H562.738L562.708 269.216ZM570.083 263.291C569.878 263.257 569.655 263.24 569.416 263.24C568.528 263.24 567.925 263.618 567.607 264.375V270H566.252V262.075H567.571L567.592 262.991C568.037 262.283 568.667 261.929 569.482 261.929C569.746 261.929 569.946 261.963 570.083 262.031V263.291ZM574.637 270.146C573.563 270.146 572.689 269.795 572.015 269.092C571.341 268.384 571.004 267.439 571.004 266.257V266.008C571.004 265.222 571.153 264.521 571.451 263.906C571.754 263.286 572.174 262.803 572.711 262.456C573.253 262.104 573.839 261.929 574.469 261.929C575.499 261.929 576.3 262.268 576.871 262.947C577.442 263.625 577.728 264.597 577.728 265.862V266.426H572.359C572.379 267.207 572.606 267.839 573.041 268.323C573.48 268.801 574.037 269.041 574.71 269.041C575.189 269.041 575.594 268.943 575.926 268.748C576.258 268.552 576.549 268.293 576.798 267.971L577.626 268.616C576.961 269.636 575.965 270.146 574.637 270.146ZM574.469 263.042C573.922 263.042 573.463 263.242 573.092 263.643C572.721 264.038 572.491 264.595 572.403 265.312H576.373V265.21C576.334 264.521 576.148 263.989 575.816 263.613C575.484 263.232 575.035 263.042 574.469 263.042ZM584.077 267.898C584.077 267.532 583.938 267.249 583.66 267.048C583.386 266.843 582.905 266.667 582.217 266.521C581.533 266.375 580.989 266.199 580.583 265.994C580.183 265.789 579.885 265.544 579.69 265.261C579.499 264.978 579.404 264.641 579.404 264.25C579.404 263.601 579.678 263.052 580.224 262.603C580.776 262.153 581.479 261.929 582.334 261.929C583.232 261.929 583.96 262.161 584.516 262.625C585.078 263.088 585.359 263.682 585.359 264.404H583.996C583.996 264.033 583.838 263.713 583.52 263.445C583.208 263.176 582.812 263.042 582.334 263.042C581.841 263.042 581.455 263.149 581.177 263.364C580.898 263.579 580.759 263.86 580.759 264.207C580.759 264.534 580.889 264.78 581.147 264.946C581.406 265.112 581.872 265.271 582.546 265.422C583.225 265.574 583.774 265.754 584.194 265.964C584.614 266.174 584.924 266.428 585.124 266.726C585.329 267.019 585.432 267.378 585.432 267.803C585.432 268.511 585.149 269.08 584.582 269.509C584.016 269.934 583.281 270.146 582.378 270.146C581.743 270.146 581.182 270.034 580.693 269.81C580.205 269.585 579.822 269.272 579.543 268.872C579.27 268.467 579.133 268.03 579.133 267.561H580.488C580.513 268.015 580.693 268.376 581.03 268.645C581.372 268.909 581.821 269.041 582.378 269.041C582.891 269.041 583.301 268.938 583.608 268.733C583.921 268.523 584.077 268.245 584.077 267.898Z" fill="white"/>
<path d="M536.688 202.391C536.547 203.594 536.102 204.523 535.352 205.18C534.607 205.831 533.615 206.156 532.375 206.156C531.031 206.156 529.953 205.674 529.141 204.711C528.333 203.747 527.93 202.458 527.93 200.844V199.75C527.93 198.693 528.117 197.763 528.492 196.961C528.872 196.159 529.409 195.544 530.102 195.117C530.794 194.685 531.596 194.469 532.508 194.469C533.716 194.469 534.685 194.807 535.414 195.484C536.143 196.156 536.568 197.089 536.688 198.281H535.18C535.049 197.375 534.766 196.719 534.328 196.312C533.896 195.906 533.289 195.703 532.508 195.703C531.549 195.703 530.797 196.057 530.25 196.766C529.708 197.474 529.438 198.482 529.438 199.789V200.891C529.438 202.125 529.695 203.107 530.211 203.836C530.727 204.565 531.448 204.93 532.375 204.93C533.208 204.93 533.846 204.742 534.289 204.367C534.737 203.987 535.034 203.328 535.18 202.391H536.688ZM542.762 198.844C542.543 198.807 542.306 198.789 542.051 198.789C541.103 198.789 540.459 199.193 540.121 200V206H538.676V197.547H540.082L540.105 198.523C540.579 197.768 541.251 197.391 542.121 197.391C542.402 197.391 542.616 197.427 542.762 197.5V198.844ZM547.609 206.156C546.463 206.156 545.531 205.781 544.812 205.031C544.093 204.276 543.734 203.268 543.734 202.008V201.742C543.734 200.904 543.893 200.156 544.211 199.5C544.534 198.839 544.981 198.323 545.554 197.953C546.132 197.578 546.757 197.391 547.429 197.391C548.528 197.391 549.382 197.753 549.992 198.477C550.601 199.201 550.906 200.237 550.906 201.586V202.188H545.179C545.2 203.021 545.442 203.695 545.906 204.211C546.375 204.721 546.968 204.977 547.687 204.977C548.198 204.977 548.63 204.872 548.984 204.664C549.338 204.456 549.648 204.18 549.914 203.836L550.797 204.523C550.088 205.612 549.026 206.156 547.609 206.156ZM547.429 198.578C546.846 198.578 546.356 198.792 545.961 199.219C545.565 199.641 545.32 200.234 545.226 201H549.461V200.891C549.419 200.156 549.221 199.589 548.867 199.188C548.513 198.781 548.034 198.578 547.429 198.578ZM557.964 206C557.881 205.833 557.813 205.536 557.761 205.109C557.089 205.807 556.287 206.156 555.355 206.156C554.522 206.156 553.837 205.922 553.3 205.453C552.769 204.979 552.503 204.38 552.503 203.656C552.503 202.776 552.837 202.094 553.503 201.609C554.175 201.12 555.118 200.875 556.332 200.875H557.738V200.211C557.738 199.706 557.587 199.305 557.285 199.008C556.983 198.706 556.537 198.555 555.949 198.555C555.433 198.555 555.001 198.685 554.652 198.945C554.303 199.206 554.128 199.521 554.128 199.891H552.675C552.675 199.469 552.824 199.062 553.121 198.672C553.423 198.276 553.829 197.964 554.339 197.734C554.855 197.505 555.42 197.391 556.035 197.391C557.009 197.391 557.772 197.635 558.324 198.125C558.876 198.609 559.162 199.279 559.183 200.133V204.023C559.183 204.799 559.282 205.417 559.48 205.875V206H557.964ZM555.566 204.898C556.019 204.898 556.449 204.781 556.855 204.547C557.261 204.312 557.556 204.008 557.738 203.633V201.898H556.605C554.834 201.898 553.949 202.417 553.949 203.453C553.949 203.906 554.1 204.26 554.402 204.516C554.704 204.771 555.092 204.898 555.566 204.898ZM563.57 195.5V197.547H565.148V198.664H563.57V203.906C563.57 204.245 563.64 204.5 563.781 204.672C563.921 204.839 564.161 204.922 564.499 204.922C564.666 204.922 564.895 204.891 565.187 204.828V206C564.807 206.104 564.437 206.156 564.077 206.156C563.432 206.156 562.945 205.961 562.617 205.57C562.288 205.18 562.124 204.625 562.124 203.906V198.664H560.585V197.547H562.124V195.5H563.57ZM570.511 206.156C569.365 206.156 568.433 205.781 567.714 205.031C566.995 204.276 566.636 203.268 566.636 202.008V201.742C566.636 200.904 566.795 200.156 567.112 199.5C567.435 198.839 567.883 198.323 568.456 197.953C569.034 197.578 569.659 197.391 570.331 197.391C571.43 197.391 572.284 197.753 572.894 198.477C573.503 199.201 573.808 200.237 573.808 201.586V202.188H568.081C568.102 203.021 568.344 203.695 568.808 204.211C569.277 204.721 569.87 204.977 570.589 204.977C571.099 204.977 571.532 204.872 571.886 204.664C572.24 204.456 572.55 204.18 572.816 203.836L573.698 204.523C572.99 205.612 571.928 206.156 570.511 206.156ZM570.331 198.578C569.748 198.578 569.258 198.792 568.862 199.219C568.467 199.641 568.222 200.234 568.128 201H572.362V200.891C572.321 200.156 572.123 199.589 571.769 199.188C571.415 198.781 570.935 198.578 570.331 198.578ZM584.995 206C584.912 205.833 584.844 205.536 584.792 205.109C584.12 205.807 583.318 206.156 582.386 206.156C581.552 206.156 580.867 205.922 580.331 205.453C579.8 204.979 579.534 204.38 579.534 203.656C579.534 202.776 579.867 202.094 580.534 201.609C581.206 201.12 582.149 200.875 583.362 200.875H584.768V200.211C584.768 199.706 584.617 199.305 584.315 199.008C584.013 198.706 583.568 198.555 582.979 198.555C582.464 198.555 582.031 198.685 581.682 198.945C581.334 199.206 581.159 199.521 581.159 199.891H579.706C579.706 199.469 579.854 199.062 580.151 198.672C580.453 198.276 580.86 197.964 581.37 197.734C581.886 197.505 582.451 197.391 583.065 197.391C584.039 197.391 584.802 197.635 585.354 198.125C585.906 198.609 586.193 199.279 586.214 200.133V204.023C586.214 204.799 586.313 205.417 586.511 205.875V206H584.995ZM582.597 204.898C583.05 204.898 583.479 204.781 583.886 204.547C584.292 204.312 584.586 204.008 584.768 203.633V201.898H583.636C581.865 201.898 580.979 202.417 580.979 203.453C580.979 203.906 581.13 204.26 581.432 204.516C581.735 204.771 582.123 204.898 582.597 204.898ZM596.159 204.977C596.674 204.977 597.125 204.82 597.51 204.508C597.896 204.195 598.109 203.805 598.151 203.336H599.518C599.492 203.82 599.325 204.281 599.018 204.719C598.711 205.156 598.299 205.505 597.784 205.766C597.273 206.026 596.732 206.156 596.159 206.156C595.008 206.156 594.091 205.773 593.409 205.008C592.732 204.237 592.393 203.185 592.393 201.852V201.609C592.393 200.786 592.544 200.055 592.846 199.414C593.148 198.773 593.581 198.276 594.143 197.922C594.711 197.568 595.38 197.391 596.151 197.391C597.099 197.391 597.885 197.674 598.51 198.242C599.141 198.81 599.476 199.547 599.518 200.453H598.151C598.109 199.906 597.901 199.458 597.526 199.109C597.156 198.755 596.698 198.578 596.151 198.578C595.417 198.578 594.846 198.844 594.44 199.375C594.039 199.901 593.838 200.664 593.838 201.664V201.938C593.838 202.911 594.039 203.661 594.44 204.188C594.841 204.714 595.414 204.977 596.159 204.977ZM600.92 201.695C600.92 200.867 601.082 200.122 601.405 199.461C601.733 198.799 602.186 198.289 602.764 197.93C603.347 197.57 604.011 197.391 604.756 197.391C605.907 197.391 606.837 197.789 607.545 198.586C608.259 199.383 608.616 200.443 608.616 201.766V201.867C608.616 202.69 608.457 203.43 608.139 204.086C607.827 204.737 607.376 205.245 606.787 205.609C606.204 205.974 605.532 206.156 604.772 206.156C603.626 206.156 602.696 205.758 601.983 204.961C601.274 204.164 600.92 203.109 600.92 201.797V201.695ZM602.373 201.867C602.373 202.805 602.59 203.557 603.022 204.125C603.459 204.693 604.043 204.977 604.772 204.977C605.506 204.977 606.09 204.69 606.522 204.117C606.954 203.539 607.17 202.732 607.17 201.695C607.17 200.768 606.949 200.018 606.506 199.445C606.069 198.867 605.485 198.578 604.756 198.578C604.043 198.578 603.467 198.862 603.03 199.43C602.592 199.997 602.373 200.81 602.373 201.867ZM615.807 205.164C615.244 205.826 614.419 206.156 613.33 206.156C612.429 206.156 611.742 205.896 611.268 205.375C610.799 204.849 610.562 204.073 610.557 203.047V197.547H612.002V203.008C612.002 204.289 612.523 204.93 613.565 204.93C614.669 204.93 615.403 204.518 615.768 203.695V197.547H617.213V206H615.838L615.807 205.164ZM623.662 198.844C623.443 198.807 623.206 198.789 622.951 198.789C622.003 198.789 621.36 199.193 621.022 200V206H619.576V197.547H620.982L621.006 198.523C621.48 197.768 622.152 197.391 623.022 197.391C623.303 197.391 623.516 197.427 623.662 197.5V198.844ZM630.08 203.758C630.08 203.367 629.932 203.065 629.635 202.852C629.343 202.633 628.83 202.445 628.096 202.289C627.366 202.133 626.786 201.945 626.353 201.727C625.926 201.508 625.609 201.247 625.4 200.945C625.197 200.643 625.096 200.284 625.096 199.867C625.096 199.174 625.387 198.589 625.971 198.109C626.559 197.63 627.309 197.391 628.221 197.391C629.179 197.391 629.955 197.638 630.549 198.133C631.148 198.628 631.447 199.26 631.447 200.031H629.994C629.994 199.635 629.825 199.294 629.486 199.008C629.153 198.721 628.731 198.578 628.221 198.578C627.695 198.578 627.283 198.693 626.986 198.922C626.689 199.151 626.541 199.451 626.541 199.82C626.541 200.169 626.679 200.432 626.955 200.609C627.231 200.786 627.728 200.956 628.447 201.117C629.171 201.279 629.757 201.471 630.205 201.695C630.653 201.919 630.984 202.19 631.197 202.508C631.416 202.82 631.525 203.203 631.525 203.656C631.525 204.411 631.223 205.018 630.619 205.477C630.015 205.93 629.231 206.156 628.268 206.156C627.59 206.156 626.991 206.036 626.471 205.797C625.95 205.557 625.541 205.224 625.244 204.797C624.952 204.365 624.807 203.898 624.807 203.398H626.252C626.278 203.883 626.471 204.268 626.83 204.555C627.195 204.836 627.674 204.977 628.268 204.977C628.814 204.977 629.252 204.867 629.58 204.648C629.913 204.424 630.08 204.128 630.08 203.758ZM637.076 206.156C635.93 206.156 634.998 205.781 634.279 205.031C633.56 204.276 633.201 203.268 633.201 202.008V201.742C633.201 200.904 633.36 200.156 633.677 199.5C634 198.839 634.448 198.323 635.021 197.953C635.599 197.578 636.224 197.391 636.896 197.391C637.995 197.391 638.849 197.753 639.459 198.477C640.068 199.201 640.373 200.237 640.373 201.586V202.188H634.646C634.667 203.021 634.909 203.695 635.373 204.211C635.842 204.721 636.435 204.977 637.154 204.977C637.664 204.977 638.097 204.872 638.451 204.664C638.805 204.456 639.115 204.18 639.381 203.836L640.263 204.523C639.555 205.612 638.493 206.156 637.076 206.156ZM636.896 198.578C636.313 198.578 635.823 198.792 635.427 199.219C635.032 199.641 634.787 200.234 634.693 201H638.927V200.891C638.886 200.156 638.688 199.589 638.334 199.188C637.98 198.781 637.5 198.578 636.896 198.578Z" fill="white"/>
<path d="M758.119 201.291H753.644V206H752.238V195.336H758.844V196.493H753.644V200.141H758.119V201.291ZM759.956 201.964C759.956 201.188 760.108 200.49 760.41 199.87C760.718 199.25 761.143 198.771 761.685 198.434C762.232 198.097 762.854 197.929 763.553 197.929C764.632 197.929 765.503 198.302 766.167 199.049C766.836 199.796 767.171 200.79 767.171 202.03V202.125C767.171 202.897 767.022 203.59 766.724 204.206C766.431 204.816 766.009 205.292 765.457 205.634C764.91 205.976 764.28 206.146 763.567 206.146C762.493 206.146 761.621 205.773 760.952 205.026C760.288 204.279 759.956 203.29 759.956 202.06V201.964ZM761.319 202.125C761.319 203.004 761.521 203.71 761.927 204.242C762.337 204.774 762.884 205.041 763.567 205.041C764.256 205.041 764.803 204.772 765.208 204.235C765.613 203.693 765.816 202.936 765.816 201.964C765.816 201.095 765.608 200.392 765.193 199.855C764.783 199.313 764.236 199.042 763.553 199.042C762.884 199.042 762.344 199.308 761.934 199.84C761.524 200.373 761.319 201.134 761.319 202.125ZM772.861 199.291C772.655 199.257 772.433 199.24 772.194 199.24C771.305 199.24 770.702 199.618 770.385 200.375V206H769.03V198.075H770.348L770.37 198.991C770.815 198.283 771.445 197.929 772.26 197.929C772.524 197.929 772.724 197.963 772.861 198.031V199.291ZM786.21 202.616C786.078 203.744 785.661 204.616 784.958 205.231C784.26 205.841 783.329 206.146 782.167 206.146C780.908 206.146 779.897 205.695 779.135 204.792C778.378 203.888 778 202.68 778 201.166V200.141C778 199.149 778.176 198.278 778.527 197.526C778.884 196.774 779.387 196.198 780.036 195.797C780.685 195.392 781.437 195.189 782.292 195.189C783.425 195.189 784.333 195.507 785.016 196.142C785.7 196.771 786.098 197.646 786.21 198.764H784.797C784.675 197.914 784.409 197.299 783.998 196.918C783.593 196.537 783.024 196.347 782.292 196.347C781.393 196.347 780.688 196.679 780.175 197.343C779.667 198.007 779.413 198.952 779.413 200.177V201.21C779.413 202.367 779.655 203.288 780.139 203.971C780.622 204.655 781.298 204.997 782.167 204.997C782.949 204.997 783.547 204.821 783.962 204.469C784.382 204.113 784.66 203.495 784.797 202.616H786.21ZM791.915 199.291C791.71 199.257 791.487 199.24 791.248 199.24C790.36 199.24 789.757 199.618 789.439 200.375V206H788.084V198.075H789.403L789.425 198.991C789.869 198.283 790.499 197.929 791.314 197.929C791.578 197.929 791.778 197.963 791.915 198.031V199.291ZM796.469 206.146C795.395 206.146 794.521 205.795 793.847 205.092C793.173 204.384 792.836 203.439 792.836 202.257V202.008C792.836 201.222 792.985 200.521 793.283 199.906C793.586 199.286 794.006 198.803 794.543 198.456C795.085 198.104 795.671 197.929 796.301 197.929C797.331 197.929 798.132 198.268 798.703 198.947C799.274 199.625 799.56 200.597 799.56 201.862V202.426H794.191C794.211 203.207 794.438 203.839 794.873 204.323C795.312 204.801 795.869 205.041 796.543 205.041C797.021 205.041 797.426 204.943 797.758 204.748C798.09 204.552 798.381 204.293 798.63 203.971L799.458 204.616C798.793 205.636 797.797 206.146 796.469 206.146ZM796.301 199.042C795.754 199.042 795.295 199.242 794.924 199.643C794.553 200.038 794.323 200.595 794.235 201.312H798.205V201.21C798.166 200.521 797.981 199.989 797.648 199.613C797.316 199.232 796.867 199.042 796.301 199.042ZM806.187 206C806.109 205.844 806.046 205.565 805.997 205.165C805.367 205.819 804.615 206.146 803.741 206.146C802.96 206.146 802.318 205.927 801.815 205.487C801.317 205.043 801.068 204.481 801.068 203.803C801.068 202.978 801.38 202.338 802.005 201.884C802.635 201.425 803.519 201.195 804.657 201.195H805.975V200.573C805.975 200.099 805.833 199.723 805.55 199.445C805.267 199.162 804.849 199.02 804.298 199.02C803.814 199.02 803.409 199.142 803.082 199.386C802.755 199.63 802.591 199.926 802.591 200.272H801.229C801.229 199.877 801.368 199.496 801.646 199.13C801.93 198.759 802.31 198.466 802.789 198.251C803.272 198.036 803.802 197.929 804.378 197.929C805.291 197.929 806.007 198.158 806.524 198.617C807.042 199.071 807.31 199.699 807.33 200.5V204.147C807.33 204.875 807.423 205.453 807.608 205.883V206H806.187ZM803.939 204.967C804.364 204.967 804.766 204.857 805.147 204.638C805.528 204.418 805.804 204.132 805.975 203.781V202.155H804.913C803.253 202.155 802.423 202.641 802.423 203.612C802.423 204.037 802.564 204.369 802.848 204.608C803.131 204.848 803.495 204.967 803.939 204.967ZM811.452 196.156V198.075H812.932V199.123H811.452V204.037C811.452 204.354 811.518 204.594 811.65 204.755C811.782 204.911 812.007 204.989 812.324 204.989C812.48 204.989 812.695 204.96 812.968 204.901V206C812.612 206.098 812.265 206.146 811.928 206.146C811.323 206.146 810.866 205.963 810.559 205.597C810.251 205.231 810.097 204.711 810.097 204.037V199.123H808.655V198.075H810.097V196.156H811.452ZM814.176 201.964C814.176 201.188 814.327 200.49 814.63 199.87C814.938 199.25 815.362 198.771 815.904 198.434C816.451 198.097 817.074 197.929 817.772 197.929C818.851 197.929 819.723 198.302 820.387 199.049C821.056 199.796 821.39 200.79 821.39 202.03V202.125C821.39 202.897 821.241 203.59 820.943 204.206C820.65 204.816 820.228 205.292 819.676 205.634C819.129 205.976 818.5 206.146 817.787 206.146C816.712 206.146 815.841 205.773 815.172 205.026C814.508 204.279 814.176 203.29 814.176 202.06V201.964ZM815.538 202.125C815.538 203.004 815.741 203.71 816.146 204.242C816.556 204.774 817.103 205.041 817.787 205.041C818.475 205.041 819.022 204.772 819.427 204.235C819.833 203.693 820.035 202.936 820.035 201.964C820.035 201.095 819.828 200.392 819.413 199.855C819.002 199.313 818.456 199.042 817.772 199.042C817.103 199.042 816.564 199.308 816.153 199.84C815.743 200.373 815.538 201.134 815.538 202.125ZM827.08 199.291C826.875 199.257 826.653 199.24 826.413 199.24C825.525 199.24 824.922 199.618 824.604 200.375V206H823.249V198.075H824.568L824.59 198.991C825.034 198.283 825.664 197.929 826.479 197.929C826.743 197.929 826.943 197.963 827.08 198.031V199.291ZM833.107 203.898C833.107 203.532 832.968 203.249 832.689 203.048C832.416 202.843 831.935 202.667 831.246 202.521C830.563 202.375 830.018 202.199 829.613 201.994C829.213 201.789 828.915 201.544 828.719 201.261C828.529 200.978 828.434 200.641 828.434 200.25C828.434 199.601 828.707 199.052 829.254 198.603C829.806 198.153 830.509 197.929 831.364 197.929C832.262 197.929 832.989 198.161 833.546 198.625C834.108 199.088 834.388 199.682 834.388 200.404H833.026C833.026 200.033 832.867 199.713 832.55 199.445C832.238 199.176 831.842 199.042 831.364 199.042C830.87 199.042 830.485 199.149 830.206 199.364C829.928 199.579 829.789 199.86 829.789 200.207C829.789 200.534 829.918 200.78 830.177 200.946C830.436 201.112 830.902 201.271 831.576 201.422C832.255 201.574 832.804 201.754 833.224 201.964C833.644 202.174 833.954 202.428 834.154 202.726C834.359 203.019 834.462 203.378 834.462 203.803C834.462 204.511 834.178 205.08 833.612 205.509C833.046 205.934 832.311 206.146 831.407 206.146C830.773 206.146 830.211 206.034 829.723 205.81C829.235 205.585 828.851 205.272 828.573 204.872C828.3 204.467 828.163 204.03 828.163 203.561H829.518C829.542 204.015 829.723 204.376 830.06 204.645C830.402 204.909 830.851 205.041 831.407 205.041C831.92 205.041 832.33 204.938 832.638 204.733C832.95 204.523 833.107 204.245 833.107 203.898Z" fill="white"/>
<path d="M760.082 266.616C759.95 267.744 759.533 268.616 758.83 269.231C758.131 269.841 757.201 270.146 756.039 270.146C754.779 270.146 753.769 269.695 753.007 268.792C752.25 267.888 751.872 266.68 751.872 265.166V264.141C751.872 263.149 752.047 262.278 752.399 261.526C752.755 260.774 753.258 260.198 753.908 259.797C754.557 259.392 755.309 259.189 756.164 259.189C757.296 259.189 758.205 259.507 758.888 260.142C759.572 260.771 759.97 261.646 760.082 262.764H758.668C758.546 261.914 758.28 261.299 757.87 260.918C757.465 260.537 756.896 260.347 756.164 260.347C755.265 260.347 754.56 260.679 754.047 261.343C753.539 262.007 753.285 262.952 753.285 264.177V265.21C753.285 266.367 753.527 267.288 754.01 267.971C754.494 268.655 755.17 268.997 756.039 268.997C756.82 268.997 757.418 268.821 757.833 268.469C758.253 268.113 758.532 267.495 758.668 266.616H760.082ZM761.597 265.964C761.597 265.188 761.748 264.49 762.051 263.87C762.359 263.25 762.784 262.771 763.326 262.434C763.872 262.097 764.495 261.929 765.193 261.929C766.272 261.929 767.144 262.302 767.808 263.049C768.477 263.796 768.811 264.79 768.811 266.03V266.125C768.811 266.897 768.662 267.59 768.365 268.206C768.072 268.816 767.649 269.292 767.097 269.634C766.551 269.976 765.921 270.146 765.208 270.146C764.134 270.146 763.262 269.773 762.593 269.026C761.929 268.279 761.597 267.29 761.597 266.06V265.964ZM762.959 266.125C762.959 267.004 763.162 267.71 763.567 268.242C763.977 268.774 764.524 269.041 765.208 269.041C765.896 269.041 766.443 268.772 766.848 268.235C767.254 267.693 767.456 266.936 767.456 265.964C767.456 265.095 767.249 264.392 766.834 263.855C766.424 263.313 765.877 263.042 765.193 263.042C764.524 263.042 763.985 263.308 763.575 263.84C763.164 264.373 762.959 265.134 762.959 266.125ZM771.952 262.075L771.996 263.071C772.602 262.31 773.393 261.929 774.369 261.929C776.044 261.929 776.889 262.874 776.903 264.763V270H775.549V264.756C775.544 264.185 775.412 263.762 775.153 263.489C774.899 263.215 774.501 263.079 773.959 263.079C773.52 263.079 773.134 263.196 772.802 263.43C772.47 263.665 772.211 263.972 772.026 264.353V270H770.671V262.075H771.952ZM780.945 260.156V262.075H782.425V263.123H780.945V268.037C780.945 268.354 781.011 268.594 781.143 268.755C781.275 268.911 781.5 268.989 781.817 268.989C781.973 268.989 782.188 268.96 782.461 268.901V270C782.105 270.098 781.758 270.146 781.421 270.146C780.816 270.146 780.359 269.963 780.052 269.597C779.744 269.231 779.59 268.711 779.59 268.037V263.123H778.147V262.075H779.59V260.156H780.945ZM789.067 270C788.989 269.844 788.925 269.565 788.876 269.165C788.246 269.819 787.494 270.146 786.62 270.146C785.839 270.146 785.197 269.927 784.694 269.487C784.196 269.043 783.947 268.481 783.947 267.803C783.947 266.978 784.26 266.338 784.885 265.884C785.515 265.425 786.398 265.195 787.536 265.195H788.854V264.573C788.854 264.099 788.713 263.723 788.43 263.445C788.146 263.162 787.729 263.02 787.177 263.02C786.694 263.02 786.288 263.142 785.961 263.386C785.634 263.63 785.471 263.926 785.471 264.272H784.108C784.108 263.877 784.247 263.496 784.526 263.13C784.809 262.759 785.19 262.466 785.668 262.251C786.152 262.036 786.682 261.929 787.258 261.929C788.171 261.929 788.886 262.158 789.404 262.617C789.921 263.071 790.19 263.699 790.209 264.5V268.147C790.209 268.875 790.302 269.453 790.488 269.883V270H789.067ZM786.818 268.967C787.243 268.967 787.646 268.857 788.027 268.638C788.408 268.418 788.683 268.132 788.854 267.781V266.155H787.792C786.132 266.155 785.302 266.641 785.302 267.612C785.302 268.037 785.444 268.369 785.727 268.608C786.01 268.848 786.374 268.967 786.818 268.967ZM795.672 269.041C796.155 269.041 796.578 268.894 796.939 268.601C797.3 268.308 797.501 267.942 797.54 267.502H798.821C798.797 267.957 798.641 268.389 798.353 268.799C798.065 269.209 797.679 269.536 797.196 269.78C796.717 270.024 796.209 270.146 795.672 270.146C794.593 270.146 793.734 269.788 793.094 269.07C792.459 268.347 792.142 267.361 792.142 266.111V265.884C792.142 265.112 792.283 264.426 792.567 263.826C792.85 263.225 793.255 262.759 793.782 262.427C794.315 262.095 794.942 261.929 795.665 261.929C796.553 261.929 797.291 262.195 797.877 262.727C798.467 263.259 798.782 263.95 798.821 264.8H797.54C797.501 264.287 797.305 263.867 796.954 263.54C796.607 263.208 796.177 263.042 795.665 263.042C794.976 263.042 794.442 263.291 794.061 263.789C793.685 264.282 793.497 264.998 793.497 265.935V266.191C793.497 267.104 793.685 267.808 794.061 268.301C794.437 268.794 794.974 269.041 795.672 269.041ZM802.343 260.156V262.075H803.823V263.123H802.343V268.037C802.343 268.354 802.409 268.594 802.541 268.755C802.673 268.911 802.897 268.989 803.215 268.989C803.371 268.989 803.586 268.96 803.859 268.901V270C803.503 270.098 803.156 270.146 802.819 270.146C802.214 270.146 801.757 269.963 801.45 269.597C801.142 269.231 800.988 268.711 800.988 268.037V263.123H799.545V262.075H800.988V260.156H802.343Z" fill="white"/>
<path d="M758.126 235.217H753.659L752.655 238H751.205L755.277 227.336H756.508L760.587 238H759.145L758.126 235.217ZM754.083 234.06H757.709L755.893 229.072L754.083 234.06ZM768.68 234.125C768.68 235.336 768.401 236.311 767.845 237.048C767.288 237.78 766.541 238.146 765.603 238.146C764.602 238.146 763.828 237.792 763.282 237.084L763.216 238H761.971V226.75H763.326V230.947C763.872 230.268 764.627 229.929 765.589 229.929C766.551 229.929 767.305 230.292 767.852 231.02C768.404 231.748 768.68 232.744 768.68 234.008V234.125ZM767.325 233.972C767.325 233.049 767.146 232.336 766.79 231.833C766.433 231.33 765.921 231.079 765.252 231.079C764.358 231.079 763.716 231.494 763.326 232.324V235.751C763.741 236.582 764.388 236.997 765.266 236.997C765.916 236.997 766.421 236.745 766.783 236.242C767.144 235.739 767.325 234.982 767.325 233.972ZM770.195 233.964C770.195 233.188 770.346 232.49 770.649 231.87C770.956 231.25 771.381 230.771 771.923 230.434C772.47 230.097 773.092 229.929 773.791 229.929C774.87 229.929 775.741 230.302 776.405 231.049C777.074 231.796 777.409 232.79 777.409 234.03V234.125C777.409 234.897 777.26 235.59 776.962 236.206C776.669 236.816 776.247 237.292 775.695 237.634C775.148 237.976 774.518 238.146 773.805 238.146C772.731 238.146 771.86 237.773 771.191 237.026C770.527 236.279 770.195 235.29 770.195 234.06V233.964ZM771.557 234.125C771.557 235.004 771.759 235.71 772.165 236.242C772.575 236.774 773.122 237.041 773.805 237.041C774.494 237.041 775.041 236.772 775.446 236.235C775.851 235.693 776.054 234.936 776.054 233.964C776.054 233.095 775.846 232.392 775.431 231.855C775.021 231.313 774.474 231.042 773.791 231.042C773.122 231.042 772.582 231.308 772.172 231.84C771.762 232.373 771.557 233.134 771.557 234.125ZM784.161 237.216C783.633 237.836 782.859 238.146 781.839 238.146C780.994 238.146 780.35 237.902 779.905 237.414C779.466 236.921 779.244 236.193 779.239 235.231V230.075H780.594V235.195C780.594 236.396 781.082 236.997 782.059 236.997C783.094 236.997 783.782 236.611 784.124 235.839V230.075H785.479V238H784.19L784.161 237.216ZM789.543 228.156V230.075H791.022V231.123H789.543V236.037C789.543 236.354 789.609 236.594 789.741 236.755C789.872 236.911 790.097 236.989 790.414 236.989C790.571 236.989 790.786 236.96 791.059 236.901V238C790.702 238.098 790.356 238.146 790.019 238.146C789.413 238.146 788.957 237.963 788.649 237.597C788.342 237.231 788.188 236.711 788.188 236.037V231.123H786.745V230.075H788.188V228.156H789.543ZM801.545 237.216C801.018 237.836 800.244 238.146 799.223 238.146C798.378 238.146 797.734 237.902 797.29 237.414C796.85 236.921 796.628 236.193 796.623 235.231V230.075H797.978V235.195C797.978 236.396 798.466 236.997 799.443 236.997C800.478 236.997 801.167 236.611 801.508 235.839V230.075H802.863V238H801.574L801.545 237.216ZM809.703 235.898C809.703 235.532 809.564 235.249 809.286 235.048C809.012 234.843 808.531 234.667 807.843 234.521C807.159 234.375 806.615 234.199 806.209 233.994C805.809 233.789 805.511 233.544 805.316 233.261C805.125 232.978 805.03 232.641 805.03 232.25C805.03 231.601 805.304 231.052 805.85 230.603C806.402 230.153 807.105 229.929 807.96 229.929C808.858 229.929 809.586 230.161 810.142 230.625C810.704 231.088 810.985 231.682 810.985 232.404H809.622C809.622 232.033 809.464 231.713 809.146 231.445C808.834 231.176 808.438 231.042 807.96 231.042C807.467 231.042 807.081 231.149 806.803 231.364C806.524 231.579 806.385 231.86 806.385 232.207C806.385 232.534 806.515 232.78 806.773 232.946C807.032 233.112 807.498 233.271 808.172 233.422C808.851 233.574 809.4 233.754 809.82 233.964C810.24 234.174 810.55 234.428 810.75 234.726C810.955 235.019 811.058 235.378 811.058 235.803C811.058 236.511 810.775 237.08 810.208 237.509C809.642 237.934 808.907 238.146 808.004 238.146C807.369 238.146 806.807 238.034 806.319 237.81C805.831 237.585 805.448 237.272 805.169 236.872C804.896 236.467 804.759 236.03 804.759 235.561H806.114C806.139 236.015 806.319 236.376 806.656 236.645C806.998 236.909 807.447 237.041 808.004 237.041C808.516 237.041 808.927 236.938 809.234 236.733C809.547 236.523 809.703 236.245 809.703 235.898Z" fill="white"/>
<path d="M761.898 128.939C761.74 130.293 761.239 131.339 760.396 132.077C759.558 132.81 758.441 133.176 757.047 133.176C755.535 133.176 754.322 132.634 753.408 131.55C752.5 130.466 752.046 129.016 752.046 127.199V125.969C752.046 124.779 752.257 123.733 752.679 122.831C753.106 121.929 753.71 121.237 754.489 120.757C755.269 120.271 756.171 120.027 757.196 120.027C758.556 120.027 759.646 120.408 760.466 121.17C761.286 121.926 761.764 122.975 761.898 124.316H760.202C760.056 123.297 759.736 122.559 759.244 122.102C758.758 121.645 758.075 121.416 757.196 121.416C756.118 121.416 755.271 121.814 754.656 122.611C754.047 123.408 753.742 124.542 753.742 126.013V127.252C753.742 128.641 754.032 129.745 754.612 130.565C755.192 131.386 756.004 131.796 757.047 131.796C757.984 131.796 758.702 131.585 759.2 131.163C759.704 130.735 760.038 129.994 760.202 128.939H761.898ZM774.234 127.015C774.234 128.269 774.023 129.364 773.601 130.302C773.179 131.233 772.581 131.945 771.808 132.438C771.034 132.93 770.132 133.176 769.101 133.176C768.093 133.176 767.2 132.93 766.42 132.438C765.641 131.939 765.034 131.233 764.601 130.319C764.173 129.399 763.953 128.336 763.942 127.129V126.206C763.942 124.976 764.156 123.889 764.583 122.945C765.011 122.002 765.615 121.281 766.394 120.783C767.179 120.279 768.076 120.027 769.083 120.027C770.109 120.027 771.011 120.276 771.79 120.774C772.576 121.267 773.179 121.984 773.601 122.928C774.023 123.865 774.234 124.958 774.234 126.206V127.015ZM772.555 126.188C772.555 124.671 772.25 123.508 771.641 122.699C771.032 121.885 770.179 121.478 769.083 121.478C768.017 121.478 767.176 121.885 766.561 122.699C765.951 123.508 765.638 124.633 765.62 126.074V127.015C765.62 128.485 765.928 129.643 766.543 130.486C767.164 131.324 768.017 131.743 769.101 131.743C770.191 131.743 771.034 131.348 771.632 130.557C772.23 129.76 772.537 128.62 772.555 127.138V126.188ZM779.125 120.203L783.308 130.645L787.492 120.203H789.68V133H787.993V128.017L788.151 122.638L783.95 133H782.658L778.465 122.664L778.632 128.017V133H776.945V120.203H779.125ZM794.527 127.99V133H792.84V120.203H797.56C798.96 120.203 800.056 120.561 800.847 121.275C801.644 121.99 802.042 122.937 802.042 124.114C802.042 125.356 801.652 126.314 800.873 126.988C800.1 127.656 798.989 127.99 797.542 127.99H794.527ZM794.527 126.61H797.56C798.462 126.61 799.153 126.399 799.634 125.978C800.114 125.55 800.354 124.935 800.354 124.132C800.354 123.37 800.114 122.761 799.634 122.304C799.153 121.847 798.494 121.609 797.656 121.592H794.527V126.61ZM810.229 129.66H804.867L803.663 133H801.923L806.81 120.203H808.286L813.182 133H811.45L810.229 129.66ZM805.377 128.271H809.728L807.548 122.286L805.377 128.271ZM824.92 133H823.223L816.781 123.139V133H815.085V120.203H816.781L823.241 130.108V120.203H824.92V133ZM831.753 126.628L835.093 120.203H837.009L832.597 128.228V133H830.909V128.228L826.497 120.203H828.431L831.753 126.628Z" fill="white"/>
<path d="M983.594 200.977H978.82V206H977.32V194.625H984.367V195.859H978.82V199.75H983.594V200.977ZM991.277 203.031H986.512L985.441 206H983.894L988.238 194.625H989.551L993.902 206H992.363L991.277 203.031ZM986.965 201.797H990.832L988.894 196.477L986.965 201.797ZM1004.19 200.68C1004.19 201.779 1004.01 202.727 1003.66 203.523C1003.31 204.315 1002.83 204.935 1002.19 205.383L1004.23 206.977L1003.2 207.922L1000.8 206.016C1000.43 206.109 1000.03 206.156 999.617 206.156C998.721 206.156 997.927 205.938 997.234 205.5C996.541 205.057 996.002 204.43 995.617 203.617C995.237 202.799 995.041 201.854 995.031 200.781V199.961C995.031 198.867 995.221 197.901 995.601 197.062C995.981 196.224 996.518 195.583 997.211 195.141C997.909 194.693 998.705 194.469 999.601 194.469C1000.52 194.469 1001.32 194.69 1002.02 195.133C1002.71 195.576 1003.25 196.214 1003.62 197.047C1004 197.875 1004.19 198.844 1004.19 199.953V200.68ZM1002.69 199.945C1002.69 198.607 1002.42 197.576 1001.88 196.852C1001.35 196.122 1000.59 195.758 999.601 195.758C998.659 195.758 997.914 196.12 997.367 196.844C996.825 197.562 996.547 198.562 996.531 199.844V200.68C996.531 201.982 996.802 203.008 997.343 203.758C997.89 204.508 998.648 204.883 999.617 204.883C1000.59 204.883 1001.34 204.531 1001.87 203.828C1002.4 203.12 1002.67 202.107 1002.69 200.789V199.945Z" fill="white"/>
<path d="M978.644 265.825V270H977.238V259.336H981.171C982.338 259.336 983.251 259.634 983.91 260.229C984.574 260.825 984.906 261.614 984.906 262.595C984.906 263.63 984.582 264.429 983.932 264.99C983.288 265.547 982.362 265.825 981.156 265.825H978.644ZM978.644 264.675H981.171C981.923 264.675 982.499 264.5 982.899 264.148C983.3 263.792 983.5 263.279 983.5 262.61C983.5 261.975 983.3 261.467 982.899 261.086C982.499 260.706 981.95 260.508 981.251 260.493H978.644V264.675ZM990.479 263.291C990.274 263.257 990.052 263.24 989.812 263.24C988.924 263.24 988.321 263.618 988.003 264.375V270H986.648V262.075H987.967L987.989 262.991C988.433 262.283 989.063 261.929 989.878 261.929C990.142 261.929 990.342 261.963 990.479 262.031V263.291ZM993.363 270H992.008V262.075H993.363V270ZM991.899 259.973C991.899 259.753 991.965 259.568 992.096 259.417C992.233 259.265 992.433 259.189 992.697 259.189C992.961 259.189 993.161 259.265 993.298 259.417C993.434 259.568 993.503 259.753 993.503 259.973C993.503 260.193 993.434 260.376 993.298 260.522C993.161 260.669 992.961 260.742 992.697 260.742C992.433 260.742 992.233 260.669 992.096 260.522C991.965 260.376 991.899 260.193 991.899 259.973ZM998.313 268.162L1000.28 262.075H1001.66L998.819 270H997.786L994.915 262.075H996.299L998.313 268.162ZM1007.9 270C1007.82 269.844 1007.76 269.565 1007.71 269.165C1007.08 269.819 1006.33 270.146 1005.45 270.146C1004.67 270.146 1004.03 269.927 1003.53 269.487C1003.03 269.043 1002.78 268.481 1002.78 267.803C1002.78 266.978 1003.09 266.338 1003.72 265.884C1004.35 265.425 1005.23 265.195 1006.37 265.195H1007.69V264.573C1007.69 264.099 1007.55 263.723 1007.26 263.445C1006.98 263.162 1006.56 263.02 1006.01 263.02C1005.53 263.02 1005.12 263.142 1004.79 263.386C1004.47 263.63 1004.3 263.926 1004.3 264.272H1002.94C1002.94 263.877 1003.08 263.496 1003.36 263.13C1003.64 262.759 1004.02 262.466 1004.5 262.251C1004.98 262.036 1005.51 261.929 1006.09 261.929C1007 261.929 1007.72 262.158 1008.24 262.617C1008.75 263.071 1009.02 263.699 1009.04 264.5V268.147C1009.04 268.875 1009.14 269.453 1009.32 269.883V270H1007.9ZM1005.65 268.967C1006.08 268.967 1006.48 268.857 1006.86 268.638C1007.24 268.418 1007.52 268.132 1007.69 267.781V266.155H1006.63C1004.97 266.155 1004.14 266.641 1004.14 267.612C1004.14 268.037 1004.28 268.369 1004.56 268.608C1004.84 268.848 1005.21 268.967 1005.65 268.967ZM1014.51 269.041C1014.99 269.041 1015.41 268.894 1015.77 268.601C1016.13 268.308 1016.33 267.942 1016.37 267.502H1017.65C1017.63 267.957 1017.47 268.389 1017.19 268.799C1016.9 269.209 1016.51 269.536 1016.03 269.78C1015.55 270.024 1015.04 270.146 1014.51 270.146C1013.43 270.146 1012.57 269.788 1011.93 269.07C1011.29 268.347 1010.97 267.361 1010.97 266.111V265.884C1010.97 265.112 1011.12 264.426 1011.4 263.826C1011.68 263.225 1012.09 262.759 1012.62 262.427C1013.15 262.095 1013.78 261.929 1014.5 261.929C1015.39 261.929 1016.12 262.195 1016.71 262.727C1017.3 263.259 1017.62 263.95 1017.65 264.8H1016.37C1016.33 264.287 1016.14 263.867 1015.79 263.54C1015.44 263.208 1015.01 263.042 1014.5 263.042C1013.81 263.042 1013.27 263.291 1012.89 263.789C1012.52 264.282 1012.33 264.998 1012.33 265.935V266.191C1012.33 267.104 1012.52 267.808 1012.89 268.301C1013.27 268.794 1013.81 269.041 1014.51 269.041ZM1021.93 268.015L1023.78 262.075H1025.23L1022.04 271.223C1021.55 272.542 1020.76 273.201 1019.69 273.201L1019.43 273.179L1018.93 273.083V271.985L1019.29 272.014C1019.75 272.014 1020.11 271.921 1020.36 271.736C1020.62 271.55 1020.83 271.211 1021 270.718L1021.3 269.912L1018.47 262.075H1019.95L1021.93 268.015ZM1037.18 266.125C1037.18 267.332 1036.9 268.303 1036.35 269.041C1035.8 269.778 1035.05 270.146 1034.11 270.146C1033.15 270.146 1032.39 269.841 1031.84 269.231V273.047H1030.48V262.075H1031.72L1031.79 262.954C1032.34 262.271 1033.11 261.929 1034.09 261.929C1035.04 261.929 1035.79 262.288 1036.34 263.005C1036.9 263.723 1037.18 264.722 1037.18 266.001V266.125ZM1035.82 265.972C1035.82 265.078 1035.63 264.373 1035.25 263.855C1034.87 263.337 1034.35 263.079 1033.68 263.079C1032.86 263.079 1032.25 263.442 1031.84 264.17V267.957C1032.24 268.679 1032.86 269.041 1033.7 269.041C1034.35 269.041 1034.86 268.784 1035.24 268.271C1035.63 267.754 1035.82 266.987 1035.82 265.972ZM1038.71 265.964C1038.71 265.188 1038.86 264.49 1039.16 263.87C1039.47 263.25 1039.89 262.771 1040.44 262.434C1040.98 262.097 1041.61 261.929 1042.3 261.929C1043.38 261.929 1044.25 262.302 1044.92 263.049C1045.59 263.796 1045.92 264.79 1045.92 266.03V266.125C1045.92 266.897 1045.77 267.59 1045.47 268.206C1045.18 268.816 1044.76 269.292 1044.21 269.634C1043.66 269.976 1043.03 270.146 1042.32 270.146C1041.24 270.146 1040.37 269.773 1039.7 269.026C1039.04 268.279 1038.71 267.29 1038.71 266.06V265.964ZM1040.07 266.125C1040.07 267.004 1040.27 267.71 1040.68 268.242C1041.09 268.774 1041.63 269.041 1042.32 269.041C1043.01 269.041 1043.55 268.772 1043.96 268.235C1044.36 267.693 1044.57 266.936 1044.57 265.964C1044.57 265.095 1044.36 264.392 1043.94 263.855C1043.53 263.313 1042.99 263.042 1042.3 263.042C1041.63 263.042 1041.09 263.308 1040.68 263.84C1040.27 264.373 1040.07 265.134 1040.07 266.125ZM1049.25 270H1047.9V258.75H1049.25V270ZM1053.06 270H1051.71V262.075H1053.06V270ZM1051.6 259.973C1051.6 259.753 1051.66 259.568 1051.79 259.417C1051.93 259.265 1052.13 259.189 1052.39 259.189C1052.66 259.189 1052.86 259.265 1052.99 259.417C1053.13 259.568 1053.2 259.753 1053.2 259.973C1053.2 260.193 1053.13 260.376 1052.99 260.522C1052.86 260.669 1052.66 260.742 1052.39 260.742C1052.13 260.742 1051.93 260.669 1051.79 260.522C1051.66 260.376 1051.6 260.193 1051.6 259.973ZM1058.57 269.041C1059.06 269.041 1059.48 268.894 1059.84 268.601C1060.2 268.308 1060.4 267.942 1060.44 267.502H1061.72C1061.7 267.957 1061.54 268.389 1061.25 268.799C1060.97 269.209 1060.58 269.536 1060.1 269.78C1059.62 270.024 1059.11 270.146 1058.57 270.146C1057.5 270.146 1056.64 269.788 1056 269.07C1055.36 268.347 1055.04 267.361 1055.04 266.111V265.884C1055.04 265.112 1055.19 264.426 1055.47 263.826C1055.75 263.225 1056.16 262.759 1056.68 262.427C1057.22 262.095 1057.84 261.929 1058.57 261.929C1059.46 261.929 1060.19 262.195 1060.78 262.727C1061.37 263.259 1061.68 263.95 1061.72 264.8H1060.44C1060.4 264.287 1060.21 263.867 1059.86 263.54C1059.51 263.208 1059.08 263.042 1058.57 263.042C1057.88 263.042 1057.34 263.291 1056.96 263.789C1056.59 264.282 1056.4 264.998 1056.4 265.935V266.191C1056.4 267.104 1056.59 267.808 1056.96 268.301C1057.34 268.794 1057.88 269.041 1058.57 269.041ZM1066 268.015L1067.85 262.075H1069.3L1066.11 271.223C1065.62 272.542 1064.83 273.201 1063.76 273.201L1063.5 273.179L1063 273.083V271.985L1063.36 272.014C1063.82 272.014 1064.18 271.921 1064.43 271.736C1064.69 271.55 1064.9 271.211 1065.07 270.718L1065.37 269.912L1062.54 262.075H1064.02L1066 268.015Z" fill="white"/>
<path d="M984.606 228.493H981.178V238H979.779V228.493H976.359V227.336H984.606V228.493ZM988.692 238.146C987.618 238.146 986.743 237.795 986.07 237.092C985.396 236.384 985.059 235.439 985.059 234.257V234.008C985.059 233.222 985.208 232.521 985.506 231.906C985.808 231.286 986.228 230.803 986.765 230.456C987.307 230.104 987.893 229.929 988.523 229.929C989.554 229.929 990.354 230.268 990.926 230.947C991.497 231.625 991.783 232.597 991.783 233.862V234.426H986.414C986.433 235.207 986.66 235.839 987.095 236.323C987.535 236.801 988.091 237.041 988.765 237.041C989.243 237.041 989.649 236.943 989.981 236.748C990.313 236.552 990.603 236.293 990.852 235.971L991.68 236.616C991.016 237.636 990.02 238.146 988.692 238.146ZM988.523 231.042C987.976 231.042 987.517 231.242 987.146 231.643C986.775 232.038 986.546 232.595 986.458 233.312H990.428V233.21C990.389 232.521 990.203 231.989 989.871 231.613C989.539 231.232 989.09 231.042 988.523 231.042ZM997.348 231.291C997.143 231.257 996.921 231.24 996.681 231.24C995.793 231.24 995.19 231.618 994.872 232.375V238H993.517V230.075H994.836L994.858 230.991C995.302 230.283 995.932 229.929 996.747 229.929C997.011 229.929 997.211 229.963 997.348 230.031V231.291ZM1000.03 230.075L1000.07 230.954C1000.65 230.271 1001.44 229.929 1002.42 229.929C1003.53 229.929 1004.29 230.354 1004.69 231.203C1004.95 230.822 1005.29 230.515 1005.71 230.28C1006.14 230.046 1006.64 229.929 1007.21 229.929C1008.95 229.929 1009.83 230.849 1009.86 232.69V238H1008.51V232.771C1008.51 232.204 1008.38 231.782 1008.12 231.503C1007.86 231.22 1007.43 231.079 1006.82 231.079C1006.31 231.079 1005.9 231.23 1005.56 231.533C1005.23 231.831 1005.04 232.233 1004.99 232.741V238H1003.62V232.807C1003.62 231.655 1003.06 231.079 1001.93 231.079C1001.04 231.079 1000.44 231.457 1000.11 232.214V238H998.753V230.075H1000.03ZM1016.69 235.898C1016.69 235.532 1016.55 235.249 1016.27 235.048C1016 234.843 1015.52 234.667 1014.83 234.521C1014.14 234.375 1013.6 234.199 1013.2 233.994C1012.79 233.789 1012.5 233.544 1012.3 233.261C1012.11 232.978 1012.02 232.641 1012.02 232.25C1012.02 231.601 1012.29 231.052 1012.84 230.603C1013.39 230.153 1014.09 229.929 1014.95 229.929C1015.84 229.929 1016.57 230.161 1017.13 230.625C1017.69 231.088 1017.97 231.682 1017.97 232.404H1016.61C1016.61 232.033 1016.45 231.713 1016.13 231.445C1015.82 231.176 1015.42 231.042 1014.95 231.042C1014.45 231.042 1014.07 231.149 1013.79 231.364C1013.51 231.579 1013.37 231.86 1013.37 232.207C1013.37 232.534 1013.5 232.78 1013.76 232.946C1014.02 233.112 1014.48 233.271 1015.16 233.422C1015.84 233.574 1016.39 233.754 1016.81 233.964C1017.23 234.174 1017.54 234.428 1017.74 234.726C1017.94 235.019 1018.04 235.378 1018.04 235.803C1018.04 236.511 1017.76 237.08 1017.19 237.509C1016.63 237.934 1015.89 238.146 1014.99 238.146C1014.35 238.146 1013.79 238.034 1013.31 237.81C1012.82 237.585 1012.43 237.272 1012.16 236.872C1011.88 236.467 1011.74 236.03 1011.74 235.561H1013.1C1013.12 236.015 1013.31 236.376 1013.64 236.645C1013.98 236.909 1014.43 237.041 1014.99 237.041C1015.5 237.041 1015.91 236.938 1016.22 236.733C1016.53 236.523 1016.69 236.245 1016.69 235.898ZM1023.49 233.964C1023.49 233.188 1023.64 232.49 1023.94 231.87C1024.25 231.25 1024.68 230.771 1025.22 230.434C1025.77 230.097 1026.39 229.929 1027.09 229.929C1028.17 229.929 1029.04 230.302 1029.7 231.049C1030.37 231.796 1030.71 232.79 1030.71 234.03V234.125C1030.71 234.897 1030.56 235.59 1030.26 236.206C1029.97 236.816 1029.54 237.292 1028.99 237.634C1028.44 237.976 1027.81 238.146 1027.1 238.146C1026.03 238.146 1025.16 237.773 1024.49 237.026C1023.82 236.279 1023.49 235.29 1023.49 234.06V233.964ZM1024.85 234.125C1024.85 235.004 1025.06 235.71 1025.46 236.242C1025.87 236.774 1026.42 237.041 1027.1 237.041C1027.79 237.041 1028.34 236.772 1028.74 236.235C1029.15 235.693 1029.35 234.936 1029.35 233.964C1029.35 233.095 1029.14 232.392 1028.73 231.855C1028.32 231.313 1027.77 231.042 1027.09 231.042C1026.42 231.042 1025.88 231.308 1025.47 231.84C1025.06 232.373 1024.85 233.134 1024.85 234.125ZM1033.23 238V231.123H1031.98V230.075H1033.23V229.262C1033.23 228.413 1033.46 227.756 1033.91 227.292C1034.37 226.828 1035.01 226.596 1035.84 226.596C1036.15 226.596 1036.46 226.638 1036.77 226.721L1036.7 227.819C1036.47 227.775 1036.22 227.753 1035.96 227.753C1035.52 227.753 1035.18 227.883 1034.94 228.142C1034.71 228.396 1034.59 228.762 1034.59 229.24V230.075H1036.28V231.123H1034.59V238H1033.23ZM1046.43 235.898C1046.43 235.532 1046.29 235.249 1046.02 235.048C1045.74 234.843 1045.26 234.667 1044.57 234.521C1043.89 234.375 1043.35 234.199 1042.94 233.994C1042.54 233.789 1042.24 233.544 1042.05 233.261C1041.86 232.978 1041.76 232.641 1041.76 232.25C1041.76 231.601 1042.03 231.052 1042.58 230.603C1043.13 230.153 1043.84 229.929 1044.69 229.929C1045.59 229.929 1046.32 230.161 1046.87 230.625C1047.44 231.088 1047.72 231.682 1047.72 232.404H1046.35C1046.35 232.033 1046.19 231.713 1045.88 231.445C1045.57 231.176 1045.17 231.042 1044.69 231.042C1044.2 231.042 1043.81 231.149 1043.53 231.364C1043.26 231.579 1043.12 231.86 1043.12 232.207C1043.12 232.534 1043.25 232.78 1043.5 232.946C1043.76 233.112 1044.23 233.271 1044.9 233.422C1045.58 233.574 1046.13 233.754 1046.55 233.964C1046.97 234.174 1047.28 234.428 1047.48 234.726C1047.69 235.019 1047.79 235.378 1047.79 235.803C1047.79 236.511 1047.51 237.08 1046.94 237.509C1046.37 237.934 1045.64 238.146 1044.73 238.146C1044.1 238.146 1043.54 238.034 1043.05 237.81C1042.56 237.585 1042.18 237.272 1041.9 236.872C1041.63 236.467 1041.49 236.03 1041.49 235.561H1042.85C1042.87 236.015 1043.05 236.376 1043.39 236.645C1043.73 236.909 1044.18 237.041 1044.73 237.041C1045.25 237.041 1045.66 236.938 1045.97 236.733C1046.28 236.523 1046.43 236.245 1046.43 235.898ZM1053 238.146C1051.93 238.146 1051.05 237.795 1050.38 237.092C1049.71 236.384 1049.37 235.439 1049.37 234.257V234.008C1049.37 233.222 1049.52 232.521 1049.82 231.906C1050.12 231.286 1050.54 230.803 1051.08 230.456C1051.62 230.104 1052.2 229.929 1052.83 229.929C1053.86 229.929 1054.67 230.268 1055.24 230.947C1055.81 231.625 1056.09 232.597 1056.09 233.862V234.426H1050.72C1050.74 235.207 1050.97 235.839 1051.41 236.323C1051.85 236.801 1052.4 237.041 1053.08 237.041C1053.55 237.041 1053.96 236.943 1054.29 236.748C1054.62 236.552 1054.91 236.293 1055.16 235.971L1055.99 236.616C1055.33 237.636 1054.33 238.146 1053 238.146ZM1052.83 231.042C1052.29 231.042 1051.83 231.242 1051.46 231.643C1051.09 232.038 1050.86 232.595 1050.77 233.312H1054.74V233.21C1054.7 232.521 1054.51 231.989 1054.18 231.613C1053.85 231.232 1053.4 231.042 1052.83 231.042ZM1061.66 231.291C1061.45 231.257 1061.23 231.24 1060.99 231.24C1060.1 231.24 1059.5 231.618 1059.18 232.375V238H1057.83V230.075H1059.15L1059.17 230.991C1059.61 230.283 1060.24 229.929 1061.06 229.929C1061.32 229.929 1061.52 229.963 1061.66 230.031V231.291ZM1065.82 236.162L1067.78 230.075H1069.17L1066.32 238H1065.29L1062.42 230.075H1063.8L1065.82 236.162ZM1072.1 238H1070.75V230.075H1072.1V238ZM1070.64 227.973C1070.64 227.753 1070.7 227.568 1070.83 227.417C1070.97 227.265 1071.17 227.189 1071.43 227.189C1071.7 227.189 1071.9 227.265 1072.04 227.417C1072.17 227.568 1072.24 227.753 1072.24 227.973C1072.24 228.193 1072.17 228.376 1072.04 228.522C1071.9 228.669 1071.7 228.742 1071.43 228.742C1071.17 228.742 1070.97 228.669 1070.83 228.522C1070.7 228.376 1070.64 228.193 1070.64 227.973ZM1077.61 237.041C1078.1 237.041 1078.52 236.894 1078.88 236.601C1079.24 236.308 1079.44 235.942 1079.48 235.502H1080.76C1080.74 235.957 1080.58 236.389 1080.3 236.799C1080.01 237.209 1079.62 237.536 1079.14 237.78C1078.66 238.024 1078.15 238.146 1077.61 238.146C1076.54 238.146 1075.68 237.788 1075.04 237.07C1074.4 236.347 1074.08 235.361 1074.08 234.111V233.884C1074.08 233.112 1074.23 232.426 1074.51 231.826C1074.79 231.225 1075.2 230.759 1075.73 230.427C1076.26 230.095 1076.89 229.929 1077.61 229.929C1078.5 229.929 1079.23 230.195 1079.82 230.727C1080.41 231.259 1080.73 231.95 1080.76 232.8H1079.48C1079.44 232.287 1079.25 231.867 1078.9 231.54C1078.55 231.208 1078.12 231.042 1077.61 231.042C1076.92 231.042 1076.38 231.291 1076 231.789C1075.63 232.282 1075.44 232.998 1075.44 233.935V234.191C1075.44 235.104 1075.63 235.808 1076 236.301C1076.38 236.794 1076.92 237.041 1077.61 237.041ZM1085.74 238.146C1084.66 238.146 1083.79 237.795 1083.11 237.092C1082.44 236.384 1082.1 235.439 1082.1 234.257V234.008C1082.1 233.222 1082.25 232.521 1082.55 231.906C1082.85 231.286 1083.27 230.803 1083.81 230.456C1084.35 230.104 1084.94 229.929 1085.57 229.929C1086.6 229.929 1087.4 230.268 1087.97 230.947C1088.54 231.625 1088.83 232.597 1088.83 233.862V234.426H1083.46C1083.48 235.207 1083.71 235.839 1084.14 236.323C1084.58 236.801 1085.14 237.041 1085.81 237.041C1086.29 237.041 1086.69 236.943 1087.03 236.748C1087.36 236.552 1087.65 236.293 1087.9 235.971L1088.72 236.616C1088.06 237.636 1087.06 238.146 1085.74 238.146ZM1085.57 231.042C1085.02 231.042 1084.56 231.242 1084.19 231.643C1083.82 232.038 1083.59 232.595 1083.5 233.312H1087.47V233.21C1087.43 232.521 1087.25 231.989 1086.92 231.613C1086.58 231.232 1086.13 231.042 1085.57 231.042Z" fill="white"/>
<path d="M978.747 302H977.34V291.336H978.747V302ZM982.547 294.075L982.583 294.954C983.164 294.271 983.948 293.929 984.934 293.929C986.043 293.929 986.797 294.354 987.198 295.203C987.461 294.822 987.803 294.515 988.223 294.28C988.648 294.046 989.148 293.929 989.724 293.929C991.463 293.929 992.347 294.849 992.376 296.69V302H991.021V296.771C991.021 296.204 990.891 295.782 990.633 295.503C990.374 295.22 989.939 295.079 989.329 295.079C988.826 295.079 988.409 295.23 988.077 295.533C987.744 295.831 987.552 296.233 987.498 296.741V302H986.136V296.807C986.136 295.655 985.572 295.079 984.444 295.079C983.555 295.079 982.947 295.457 982.62 296.214V302H981.265V294.075H982.547ZM1001.28 298.125C1001.28 299.332 1001.01 300.303 1000.45 301.041C999.902 301.778 999.154 302.146 998.212 302.146C997.25 302.146 996.493 301.841 995.942 301.231V305.047H994.587V294.075H995.824L995.89 294.954C996.442 294.271 997.209 293.929 998.19 293.929C999.142 293.929 999.894 294.288 1000.45 295.005C1001 295.723 1001.28 296.722 1001.28 298.001V298.125ZM999.926 297.972C999.926 297.078 999.736 296.373 999.355 295.855C998.974 295.337 998.451 295.079 997.787 295.079C996.967 295.079 996.352 295.442 995.942 296.17V299.957C996.347 300.679 996.967 301.041 997.802 301.041C998.451 301.041 998.966 300.784 999.347 300.271C999.733 299.754 999.926 298.987 999.926 297.972ZM1007 295.291C1006.79 295.257 1006.57 295.24 1006.33 295.24C1005.44 295.24 1004.84 295.618 1004.52 296.375V302H1003.17V294.075H1004.49L1004.51 294.991C1004.95 294.283 1005.58 293.929 1006.4 293.929C1006.66 293.929 1006.86 293.963 1007 294.031V295.291ZM1011.55 302.146C1010.48 302.146 1009.61 301.795 1008.93 301.092C1008.26 300.384 1007.92 299.439 1007.92 298.257V298.008C1007.92 297.222 1008.07 296.521 1008.37 295.906C1008.67 295.286 1009.09 294.803 1009.63 294.456C1010.17 294.104 1010.76 293.929 1011.39 293.929C1012.42 293.929 1013.22 294.268 1013.79 294.947C1014.36 295.625 1014.65 296.597 1014.65 297.862V298.426H1009.28C1009.3 299.207 1009.52 299.839 1009.96 300.323C1010.4 300.801 1010.95 301.041 1011.63 301.041C1012.11 301.041 1012.51 300.943 1012.84 300.748C1013.18 300.552 1013.47 300.293 1013.72 299.971L1014.54 300.616C1013.88 301.636 1012.88 302.146 1011.55 302.146ZM1011.39 295.042C1010.84 295.042 1010.38 295.242 1010.01 295.643C1009.64 296.038 1009.41 296.595 1009.32 297.312H1013.29V297.21C1013.25 296.521 1013.07 295.989 1012.73 295.613C1012.4 295.232 1011.95 295.042 1011.39 295.042ZM1020.99 299.898C1020.99 299.532 1020.86 299.249 1020.58 299.048C1020.3 298.843 1019.82 298.667 1019.13 298.521C1018.45 298.375 1017.91 298.199 1017.5 297.994C1017.1 297.789 1016.8 297.544 1016.61 297.261C1016.42 296.978 1016.32 296.641 1016.32 296.25C1016.32 295.601 1016.59 295.052 1017.14 294.603C1017.69 294.153 1018.4 293.929 1019.25 293.929C1020.15 293.929 1020.88 294.161 1021.43 294.625C1022 295.088 1022.28 295.682 1022.28 296.404H1020.91C1020.91 296.033 1020.76 295.713 1020.44 295.445C1020.13 295.176 1019.73 295.042 1019.25 295.042C1018.76 295.042 1018.37 295.149 1018.09 295.364C1017.82 295.579 1017.68 295.86 1017.68 296.207C1017.68 296.534 1017.81 296.78 1018.06 296.946C1018.32 297.112 1018.79 297.271 1019.46 297.422C1020.14 297.574 1020.69 297.754 1021.11 297.964C1021.53 298.174 1021.84 298.428 1022.04 298.726C1022.25 299.019 1022.35 299.378 1022.35 299.803C1022.35 300.511 1022.07 301.08 1021.5 301.509C1020.93 301.934 1020.2 302.146 1019.3 302.146C1018.66 302.146 1018.1 302.034 1017.61 301.81C1017.12 301.585 1016.74 301.272 1016.46 300.872C1016.19 300.467 1016.05 300.03 1016.05 299.561H1017.41C1017.43 300.015 1017.61 300.376 1017.95 300.645C1018.29 300.909 1018.74 301.041 1019.3 301.041C1019.81 301.041 1020.22 300.938 1020.53 300.733C1020.84 300.523 1020.99 300.245 1020.99 299.898ZM1028.89 299.898C1028.89 299.532 1028.75 299.249 1028.47 299.048C1028.2 298.843 1027.72 298.667 1027.03 298.521C1026.34 298.375 1025.8 298.199 1025.4 297.994C1024.99 297.789 1024.7 297.544 1024.5 297.261C1024.31 296.978 1024.22 296.641 1024.22 296.25C1024.22 295.601 1024.49 295.052 1025.04 294.603C1025.59 294.153 1026.29 293.929 1027.15 293.929C1028.04 293.929 1028.77 294.161 1029.33 294.625C1029.89 295.088 1030.17 295.682 1030.17 296.404H1028.81C1028.81 296.033 1028.65 295.713 1028.33 295.445C1028.02 295.176 1027.62 295.042 1027.15 295.042C1026.65 295.042 1026.27 295.149 1025.99 295.364C1025.71 295.579 1025.57 295.86 1025.57 296.207C1025.57 296.534 1025.7 296.78 1025.96 296.946C1026.22 297.112 1026.68 297.271 1027.36 297.422C1028.04 297.574 1028.59 297.754 1029.01 297.964C1029.43 298.174 1029.74 298.428 1029.94 298.726C1030.14 299.019 1030.24 299.378 1030.24 299.803C1030.24 300.511 1029.96 301.08 1029.39 301.509C1028.83 301.934 1028.09 302.146 1027.19 302.146C1026.55 302.146 1025.99 302.034 1025.5 301.81C1025.02 301.585 1024.63 301.272 1024.36 300.872C1024.08 300.467 1023.94 300.03 1023.94 299.561H1025.3C1025.32 300.015 1025.5 300.376 1025.84 300.645C1026.18 300.909 1026.63 301.041 1027.19 301.041C1027.7 301.041 1028.11 300.938 1028.42 300.733C1028.73 300.523 1028.89 300.245 1028.89 299.898ZM1037.06 301.216C1036.53 301.836 1035.76 302.146 1034.74 302.146C1033.89 302.146 1033.25 301.902 1032.81 301.414C1032.37 300.921 1032.14 300.193 1032.14 299.231V294.075H1033.49V299.195C1033.49 300.396 1033.98 300.997 1034.96 300.997C1035.99 300.997 1036.68 300.611 1037.02 299.839V294.075H1038.38V302H1037.09L1037.06 301.216ZM1041.88 294.075L1041.92 294.954C1042.5 294.271 1043.28 293.929 1044.27 293.929C1045.38 293.929 1046.13 294.354 1046.53 295.203C1046.79 294.822 1047.14 294.515 1047.56 294.28C1047.98 294.046 1048.48 293.929 1049.06 293.929C1050.8 293.929 1051.68 294.849 1051.71 296.69V302H1050.35V296.771C1050.35 296.204 1050.22 295.782 1049.97 295.503C1049.71 295.22 1049.27 295.079 1048.66 295.079C1048.16 295.079 1047.74 295.23 1047.41 295.533C1047.08 295.831 1046.88 296.233 1046.83 296.741V302H1045.47V296.807C1045.47 295.655 1044.9 295.079 1043.78 295.079C1042.89 295.079 1042.28 295.457 1041.95 296.214V302H1040.6V294.075H1041.88Z" fill="white"/>
<path d="M982.179 127.823H979.173V133H977.477V120.203H981.713C983.154 120.203 984.262 120.531 985.035 121.188C985.814 121.844 986.204 122.799 986.204 124.053C986.204 124.85 985.987 125.544 985.554 126.136C985.126 126.728 984.528 127.17 983.761 127.463L986.767 132.895V133H984.956L982.179 127.823ZM979.173 126.443H981.766C982.604 126.443 983.269 126.227 983.761 125.793C984.259 125.359 984.508 124.779 984.508 124.053C984.508 123.262 984.271 122.655 983.796 122.233C983.327 121.812 982.647 121.598 981.757 121.592H979.173V126.443ZM995.991 127.085H990.445V131.62H996.887V133H988.757V120.203H996.799V121.592H990.445V125.705H995.991V127.085ZM1002.94 127.296C1001.49 126.88 1000.44 126.37 999.774 125.767C999.118 125.157 998.79 124.407 998.79 123.517C998.79 122.509 999.191 121.677 999.994 121.021C1000.8 120.358 1001.85 120.027 1003.14 120.027C1004.02 120.027 1004.8 120.197 1005.49 120.537C1006.18 120.877 1006.71 121.346 1007.09 121.943C1007.47 122.541 1007.66 123.194 1007.66 123.903H1005.96C1005.96 123.13 1005.72 122.523 1005.22 122.084C1004.73 121.639 1004.04 121.416 1003.14 121.416C1002.31 121.416 1001.66 121.601 1001.19 121.97C1000.73 122.333 1000.49 122.84 1000.49 123.49C1000.49 124.012 1000.71 124.454 1001.15 124.817C1001.6 125.175 1002.35 125.503 1003.41 125.802C1004.48 126.101 1005.31 126.432 1005.91 126.795C1006.51 127.152 1006.96 127.571 1007.24 128.052C1007.54 128.532 1007.68 129.098 1007.68 129.748C1007.68 130.785 1007.28 131.617 1006.47 132.244C1005.66 132.865 1004.58 133.176 1003.23 133.176C1002.35 133.176 1001.53 133.009 1000.77 132.675C1000.01 132.335 999.417 131.872 999.001 131.286C998.59 130.7 998.385 130.035 998.385 129.291H1000.08C1000.08 130.064 1000.37 130.677 1000.93 131.128C1001.51 131.573 1002.27 131.796 1003.23 131.796C1004.12 131.796 1004.8 131.614 1005.28 131.251C1005.75 130.888 1005.99 130.393 1005.99 129.766C1005.99 129.139 1005.77 128.655 1005.33 128.315C1004.89 127.97 1004.09 127.63 1002.94 127.296ZM1019.88 127.015C1019.88 128.269 1019.67 129.364 1019.25 130.302C1018.82 131.233 1018.23 131.945 1017.45 132.438C1016.68 132.93 1015.78 133.176 1014.75 133.176C1013.74 133.176 1012.84 132.93 1012.07 132.438C1011.29 131.939 1010.68 131.233 1010.25 130.319C1009.82 129.399 1009.6 128.336 1009.59 127.129V126.206C1009.59 124.976 1009.8 123.889 1010.23 122.945C1010.66 122.002 1011.26 121.281 1012.04 120.783C1012.82 120.279 1013.72 120.027 1014.73 120.027C1015.75 120.027 1016.66 120.276 1017.44 120.774C1018.22 121.267 1018.82 121.984 1019.25 122.928C1019.67 123.865 1019.88 124.958 1019.88 126.206V127.015ZM1018.2 126.188C1018.2 124.671 1017.9 123.508 1017.29 122.699C1016.68 121.885 1015.82 121.478 1014.73 121.478C1013.66 121.478 1012.82 121.885 1012.21 122.699C1011.6 123.508 1011.28 124.633 1011.27 126.074V127.015C1011.27 128.485 1011.57 129.643 1012.19 130.486C1012.81 131.324 1013.66 131.743 1014.75 131.743C1015.84 131.743 1016.68 131.348 1017.28 130.557C1017.87 129.76 1018.18 128.62 1018.2 127.138V126.188ZM1031.6 120.203V128.904C1031.59 130.111 1031.21 131.099 1030.46 131.866C1029.71 132.634 1028.69 133.064 1027.4 133.158L1026.95 133.176C1025.55 133.176 1024.43 132.798 1023.6 132.042C1022.77 131.286 1022.35 130.246 1022.34 128.922V120.203H1024.01V128.869C1024.01 129.795 1024.26 130.516 1024.77 131.031C1025.28 131.541 1026.01 131.796 1026.95 131.796C1027.9 131.796 1028.63 131.541 1029.14 131.031C1029.65 130.521 1029.9 129.804 1029.9 128.878V120.203H1031.6ZM1039.14 127.823H1036.13V133H1034.43V120.203H1038.67C1040.11 120.203 1041.22 120.531 1041.99 121.188C1042.77 121.844 1043.16 122.799 1043.16 124.053C1043.16 124.85 1042.94 125.544 1042.51 126.136C1042.08 126.728 1041.48 127.17 1040.72 127.463L1043.72 132.895V133H1041.91L1039.14 127.823ZM1036.13 126.443H1038.72C1039.56 126.443 1040.23 126.227 1040.72 125.793C1041.22 125.359 1041.46 124.779 1041.46 124.053C1041.46 123.262 1041.23 122.655 1040.75 122.233C1040.28 121.812 1039.6 121.598 1038.71 121.592H1036.13V126.443ZM1055.13 128.939C1054.97 130.293 1054.47 131.339 1053.62 132.077C1052.79 132.81 1051.67 133.176 1050.28 133.176C1048.76 133.176 1047.55 132.634 1046.64 131.55C1045.73 130.466 1045.27 129.016 1045.27 127.199V125.969C1045.27 124.779 1045.49 123.733 1045.91 122.831C1046.33 121.929 1046.94 121.237 1047.72 120.757C1048.5 120.271 1049.4 120.027 1050.42 120.027C1051.78 120.027 1052.87 120.408 1053.69 121.17C1054.51 121.926 1054.99 122.975 1055.13 124.316H1053.43C1053.28 123.297 1052.96 122.559 1052.47 122.102C1051.99 121.645 1051.3 121.416 1050.42 121.416C1049.35 121.416 1048.5 121.814 1047.88 122.611C1047.28 123.408 1046.97 124.542 1046.97 126.013V127.252C1046.97 128.641 1047.26 129.745 1047.84 130.565C1048.42 131.386 1049.23 131.796 1050.28 131.796C1051.21 131.796 1051.93 131.585 1052.43 131.163C1052.93 130.735 1053.27 129.994 1053.43 128.939H1055.13ZM1064.85 127.085H1059.31V131.62H1065.75V133H1057.62V120.203H1065.66V121.592H1059.31V125.705H1064.85V127.085ZM1071.8 127.296C1070.35 126.88 1069.3 126.37 1068.64 125.767C1067.98 125.157 1067.65 124.407 1067.65 123.517C1067.65 122.509 1068.05 121.677 1068.86 121.021C1069.66 120.358 1070.71 120.027 1072 120.027C1072.88 120.027 1073.66 120.197 1074.35 120.537C1075.04 120.877 1075.57 121.346 1075.95 121.943C1076.33 122.541 1076.52 123.194 1076.52 123.903H1074.82C1074.82 123.13 1074.58 122.523 1074.08 122.084C1073.59 121.639 1072.9 121.416 1072 121.416C1071.17 121.416 1070.52 121.601 1070.05 121.97C1069.59 122.333 1069.36 122.84 1069.36 123.49C1069.36 124.012 1069.58 124.454 1070.02 124.817C1070.46 125.175 1071.21 125.503 1072.27 125.802C1073.34 126.101 1074.17 126.432 1074.77 126.795C1075.37 127.152 1075.82 127.571 1076.11 128.052C1076.4 128.532 1076.55 129.098 1076.55 129.748C1076.55 130.785 1076.14 131.617 1075.33 132.244C1074.52 132.865 1073.44 133.176 1072.09 133.176C1071.21 133.176 1070.39 133.009 1069.63 132.675C1068.87 132.335 1068.28 131.872 1067.86 131.286C1067.45 130.7 1067.25 130.035 1067.25 129.291H1068.94C1068.94 130.064 1069.23 130.677 1069.8 131.128C1070.37 131.573 1071.13 131.796 1072.09 131.796C1072.98 131.796 1073.66 131.614 1074.14 131.251C1074.61 130.888 1074.85 130.393 1074.85 129.766C1074.85 129.139 1074.63 128.655 1074.19 128.315C1073.75 127.97 1072.95 127.63 1071.8 127.296Z" fill="white"/>
<defs>
<clipPath id="clip0_1_206">
<rect width="208" height="34" fill="white" transform="translate(75 120)"/>
</clipPath>
</defs>
</svg>
